STARTFONT 2.1
FONT -MIT-KRIVO KST-Medium-R-Normal--100-36-200-200-P-26-ISO8859-1
SIZE 36 200 200
FONTBOUNDINGBOX 49 100 -15 -50
STARTPROPERTIES 17
ADD_STYLE_NAME ""
AVERAGE_WIDTH 26
CHARSET_ENCODING "1"
CHARSET_REGISTRY "ISO8859"
DEFAULT_CHAR 0
FAMILY "KRIVO KST"
FONT_ASCENT 50
FONT_DESCENT 50
FOUNDRY "MIT"
PIXEL_SIZE 100
POINT_SIZE 36
RESOLUTION_X 200
RESOLUTION_Y 200
SETWIDTH_NAME "Normal"
SLANT "R"
SPACING "P"
WEIGHT_NAME "Medium"
ENDPROPERTIES
CHARS 94
STARTCHAR char32
ENCODING 32
SWIDTH 567 0
DWIDTH 21 0
BBX 1 100 0 -50
BITMAP
00
00
00
00
00
00
00
00
00
00
00
00
00
00
00
00
00
00
00
00
00
00
00
00
00
00
00
00
00
00
00
00
00
00
00
00
00
00
00
00
00
00
00
00
00
00
00
00
00
00
00
00
00
00
00
00
00
00
00
00
00
00
00
00
00
00
00
00
00
00
00
00
00
00
00
00
00
00
00
00
00
00
00
00
00
00
00
00
00
00
00
00
00
00
00
00
00
00
00
00
ENDCHAR
STARTCHAR char33
ENCODING 33
SWIDTH 594 0
DWIDTH 22 0
BBX 22 100 0 -50
BITMAP
000000
000000
000000
000000
000000
000000
000000
000000
003000
007800
007C00
00FC00
00FC00
007C00
007800
000000
000000
000000
000000
000000
000000
000000
001000
00FC00
03FE00
07FF80
0FFFE0
0FFFE0
1F8040
3E0000
3C0000
380000
700000
700000
700000
780000
780000
7C0008
3E003C
3F00FC
1FE7FC
1FFFFC
0FFFF8
3FFFF0
FFFF80
FFFE00
FFF800
FFE000
FF8000
FC0000
000000
000000
000000
000000
000000
000000
000000
000000
000000
000000
000000
000000
000000
000000
000000
000000
000000
000000
000000
000000
000000
000000
000000
000000
000000
000000
000000
000000
000000
000000
000000
000000
000000
000000
000000
000000
000000
000000
000000
000000
000000
000000
000000
000000
000000
000000
000000
000000
000000
000000
ENDCHAR
STARTCHAR char34
ENCODING 34
SWIDTH 1026 0
DWIDTH 38 0
BBX 37 100 1 -50
BITMAP
0000000000
0000000000
0000000000
0000000000
0000000000
0000000000
0000000000
0000000000
0000000000
0000000300
0000000380
00000007C0
00000007C0
00000007C0
0000000380
0000000100
0000000000
0000000000
0000000000
0000000000
0000000000
00000003C0
00000003E0
00000007E0
0000000FF0
0000000FF0
0000001DF0
00000018F8
0000001878
0000003838
0000003838
0000003C38
0000003FF8
8000003FF8
8000003FF8
8000001F98
8000000018
8000000018
C000000018
E000000030
F000000030
F800000060
7E000000E0
7F800003C0
3FF8000FC0
3FFFFFFF80
1FFFFFFF00
0FFFFFFC00
03FFFFF000
007FFFC000
0007F80000
0000000000
0000000000
0000000000
0000000000
0000000000
0000000000
0000000000
0000000000
0000000000
0000000000
0000000000
0000000000
0000000000
0000000000
0000000000
0000000000
0000000000
0000000000
0000000000
0000000000
0000000000
0000000000
0000000000
0000000000
0000000000
0000000000
0000000000
0000000000
0000000000
0000000000
0000000000
0000000000
0000000000
0000000000
0000000000
0000000000
0000000000
0000000000
0000000000
0000000000
0000000000
0000000000
0000000000
0000000000
0000000000
0000000000
0000000000
0000000000
0000000000
ENDCHAR
STARTCHAR char35
ENCODING 35
SWIDTH 1161 0
DWIDTH 43 0
BBX 42 100 1 -50
BITMAP
000000000000
000000000000
000000000000
000000000000
000000000000
000000000000
000000000000
000000000000
000000000000
000000000000
000000000000
000000000000
000000000000
000000000000
000000000000
000000000000
000000006000
00000000F000
00000001F000
00000000F800
00000000F000
000000006000
000000000000
000000000000
000000000000
000000000000
000000000000
000000001800
000000007C00
00000000FE00
00000001FE00
00000001FE00
40000003FE00
800000038E00
800000030600
800000060400
800000060400
800000040C00
800000040C00
800000061800
C00000063800
C0000007F000
C0000003F000
E0000003FC00
E0000007FFC0
F000000FFFC0
7C00007FFFC0
7F0003FC3FC0
7FFFFFF80FC0
3FFFFFE001C0
1FFFFFC00000
0FFFFE000000
07FFF8000000
007F00000000
000000000000
000000000000
000000000000
000000000000
000000000000
000000000000
000000000000
000000000000
000000000000
000000000000
000000000000
000000000000
000000000000
000000000000
000000000000
000000000000
000000000000
000000000000
000000000000
000000000000
000000000000
000000000000
000000000000
000000000000
000000000000
000000000000
000000000000
000000000000
000000000000
000000000000
000000000000
000000000000
000000000000
000000000000
000000000000
000000000000
000000000000
000000000000
000000000000
000000000000
000000000000
000000000000
000000000000
000000000000
000000000000
000000000000
ENDCHAR
STARTCHAR char36
ENCODING 36
SWIDTH 513 0
DWIDTH 19 0
BBX 19 100 0 -50
BITMAP
000000
000000
000000
000000
000000
000000
000000
000000
000000
000000
000000
000000
000000
000000
000000
000000
002000
007000
00F000
00F800
00F800
007000
000000
000000
000000
000000
000000
000000
003E00
007E00
00FF00
01FF00
01FF00
03C700
038700
030600
060600
060600
060600
070C00
079C00
03FC00
03F800
07FF00
FFFF80
FFFFE0
FFFFE0
FF3FE0
FE07E0
F001E0
000000
000000
000000
000000
000000
000000
000000
000000
000000
000000
000000
000000
000000
000000
000000
000000
000000
000000
000000
000000
000000
000000
000000
000000
000000
000000
000000
000000
000000
000000
000000
000000
000000
000000
000000
000000
000000
000000
000000
000000
000000
000000
000000
000000
000000
000000
000000
000000
000000
000000
ENDCHAR
STARTCHAR char37
ENCODING 37
SWIDTH 324 0
DWIDTH 12 0
BBX 12 100 0 -50
BITMAP
0000
0000
0000
0000
0000
0000
0000
0000
0000
0000
0000
0000
0600
0F00
1F00
1F80
1F00
0F00
0400
0000
0000
0000
0000
0000
0780
0F80
0FC0
1FC0
1FC0
3BE0
31E0
61E0
60E0
70F0
7FF0
7FF0
7FF0
7F70
1E70
0070
0070
0060
00E0
0FC0
FFC0
FF80
FF00
FE00
FC00
E000
0000
0000
0000
0000
0000
0000
0000
0000
0000
0000
0000
0000
0000
0000
0000
0000
0000
0000
0000
0000
0000
0000
0000
0000
0000
0000
0000
0000
0000
0000
0000
0000
0000
0000
0000
0000
0000
0000
0000
0000
0000
0000
0000
0000
0000
0000
0000
0000
0000
0000
ENDCHAR
STARTCHAR char38
ENCODING 38
SWIDTH 378 0
DWIDTH 14 0
BBX 13 100 1 -50
BITMAP
0000
0000
0000
0000
0000
0000
0000
0000
0000
0000
0000
0000
0000
0000
0000
0000
0000
0000
0000
0000
0000
0000
0000
0000
0000
0000
0000
0000
0000
0000
0000
0000
0700
0F80
0FC0
1FE0
1FE0
33F0
31F0
20F0
6078
6070
E070
E030
F060
FFE0
FFC0
7F80
7F00
0C00
0000
0000
0000
0000
0000
0000
0000
0000
0000
0000
0000
0000
0000
0000
0000
0000
0000
0000
0000
0000
0000
0000
0000
0000
0000
0000
0000
0000
0000
0000
0000
0000
0000
0000
0000
0000
0000
0000
0000
0000
0000
0000
0000
0000
0000
0000
0000
0000
0000
0000
ENDCHAR
STARTCHAR char39
ENCODING 39
SWIDTH 513 0
DWIDTH 19 0
BBX 18 100 1 -50
BITMAP
000000
000000
000000
000000
000000
000000
000000
000000
000000
000000
000000
000000
000000
000000
000000
000000
000000
000000
001000
003000
007000
007000
007000
007000
007000
007000
007000
00F000
00F000
00F000
03F000
0FF000
1FF000
1C7000
307000
207000
607800
607800
787800
FFF800
FFFC00
7FFC00
3FBE00
023F80
001FC0
001FC0
000FC0
0007C0
0001C0
0000C0
000000
000000
000000
000000
000000
000000
000000
000000
000000
000000
000000
000000
000000
000000
000000
000000
000000
000000
000000
000000
000000
000000
000000
000000
000000
000000
000000
000000
000000
000000
000000
000000
000000
000000
000000
000000
000000
000000
000000
000000
000000
000000
000000
000000
000000
000000
000000
000000
000000
000000
ENDCHAR
STARTCHAR char40
ENCODING 40
SWIDTH 810 0
DWIDTH 30 0
BBX 30 100 0 -50
BITMAP
00000000
00000000
00000000
00000000
00000000
00000000
00000000
00000000
00000000
00000000
00000000
00000000
00000000
00000000
00000000
00000000
00000000
00000000
00300000
00780000
00FC0000
00FC0000
01FC0000
01FC0000
03FC0000
031C0000
030E0000
060E0000
06040000
04040000
04040000
0C040000
08040000
08040000
08080000
08080000
08080000
08080000
08180000
18180000
18300000
18700000
18F00000
1FE00000
FFE7FFFC
FFCFFFFC
FF9FFFFC
FF1FFFFC
FE3FFFFC
0E000780
060001E0
060000E0
02000070
03000030
01800010
01C00010
00E00010
00F80018
007E0018
003FC03C
001FFFFC
000FFFFC
0007FFFC
0001FFF8
00007FF8
00000FE0
00000000
00000000
00000000
00000000
00000000
00000000
00000000
00000000
00000000
00000000
00000000
00000000
00000000
00000000
00000000
00000000
00000000
00000000
00000000
00000000
00000000
00000000
00000000
00000000
00000000
00000000
00000000
00000000
00000000
00000000
00000000
00000000
00000000
00000000
ENDCHAR
STARTCHAR char41
ENCODING 41
SWIDTH 567 0
DWIDTH 21 0
BBX 21 100 0 -50
BITMAP
000000
000000
000000
000000
000000
000000
000000
000000
000000
000000
000000
000000
000000
000000
000000
000000
000000
000000
000000
000000
000000
000000
000000
000000
000000
004000
00E000
01F000
03F800
07FC00
03FE00
01FF00
00FF80
03FFC0
0E3FC0
1C1FE0
1C1FF0
3C19F0
3C1CF8
1E1C78
1F1878
0FB878
0FF838
0FF830
3FFE30
FFFFE0
FFFFE0
FF1FC0
FE07C0
E00180
000000
000000
000000
000000
000000
000000
000000
000000
000000
000000
000000
000000
000000
000000
000000
000000
000000
000000
000000
000000
000000
000000
000000
000000
000000
000000
000000
000000
000000
000000
000000
000000
000000
000000
000000
000000
000000
000000
000000
000000
000000
000000
000000
000000
000000
000000
000000
000000
000000
000000
ENDCHAR
STARTCHAR char42
ENCODING 42
SWIDTH 756 0
DWIDTH 28 0
BBX 27 100 1 -50
BITMAP
00000000
00000000
00000000
00000000
00000000
00000000
00000000
00000000
00000000
00000000
00000000
00000000
00000000
00000000
00000000
00000000
00000000
00000000
00000000
00000000
00000000
00000000
00000000
00000000
00000000
00200000
00700000
00780000
00F80000
00F80000
00700000
00200000
00000000
00000000
00000000
00000100
00000380
00000380
00000780
000003C0
000003C0
000003C0
000001C0
000001C0
000000C0
000000E0
000000E0
000000E0
00000060
00000060
00000060
80000060
80000020
C0000060
C0000000
C0000040
E0000040
E0000080
F0000080
78000180
7E000700
7FC07F00
3FFFFE00
3FFFFC00
1FFFF800
0FFFE000
03FF8000
00380000
00000000
00000000
00000000
00000000
00000000
00000000
00000000
00000000
00000000
00000000
00000000
00000000
00000000
00000000
00000000
00000000
00000000
00000000
00000000
00000000
00000000
00000000
00000000
00000000
00000000
00000000
00000000
00000000
00000000
00000000
00000000
00000000
ENDCHAR
STARTCHAR char43
ENCODING 43
SWIDTH 945 0
DWIDTH 35 0
BBX 34 100 1 -50
BITMAP
0000000000
0000000000
0000000000
0000000000
0000000000
0000000000
0000000000
0000000000
0000000000
0000000000
0000000000
0000000000
0000000000
0000000000
0000000000
0000000000
0000000000
0000000000
0000000000
0000000000
0000000000
0000000000
0000000000
0000000000
0000000000
0000000000
0000000000
0000000000
0000000000
0000000000
0000000000
000C000000
000E000000
001F000000
001F000000
001F000000
000E000000
0000000000
0000000000
0000000000
0000000000
0000001800
0000003800
0000003C00
0000003F00
0000003FC0
0000001FC0
0000001FC0
0000001FC0
0000001FC0
0000001800
0000001800
8000000800
8000000800
8000001800
C000001800
C000001800
E000003000
6000003000
7000007000
780000E000
7E0003E000
3FC01FC000
3FFFFF8000
1FFFFF0000
0FFFFE0000
07FFF80000
01FFE00000
003C000000
0000000000
0000000000
0000000000
0000000000
0000000000
0000000000
0000000000
0000000000
0000000000
0000000000
0000000000
0000000000
0000000000
0000000000
0000000000
0000000000
0000000000
0000000000
0000000000
0000000000
0000000000
0000000000
0000000000
0000000000
0000000000
0000000000
0000000000
0000000000
0000000000
0000000000
0000000000
ENDCHAR
STARTCHAR char44
ENCODING 44
SWIDTH 432 0
DWIDTH 16 0
BBX 16 100 0 -50
BITMAP
0000
0000
0000
0000
0000
0000
0000
0000
0000
0000
0000
0000
0000
0000
0000
0000
0000
0000
0000
0000
0380
07C0
07E0
07C0
0380
0180
0000
0000
0000
0000
0000
0000
0000
0000
0000
0000
0000
0040
00C0
00C0
01C0
01C0
03E0
0FF8
FFFF
FFFF
FE7F
FC7F
F83F
400F
0000
0000
0000
0000
0000
0000
0000
0000
0000
0000
0000
0000
0000
0000
0000
0000
0000
0000
0000
0000
0000
0000
0000
0000
0000
0000
0000
0000
0000
0000
0000
0000
0000
0000
0000
0000
0000
0000
0000
0000
0000
0000
0000
0000
0000
0000
0000
0000
0000
0000
ENDCHAR
STARTCHAR char45
ENCODING 45
SWIDTH 837 0
DWIDTH 31 0
BBX 9 100 0 -50
BITMAP
0000
0000
0000
0000
0000
0000
0000
0000
0000
0000
0000
0400
0E00
1F00
1F00
1F00
0F00
0600
0000
0000
0000
0000
0000
0000
0000
0000
0000
0000
0000
0000
0000
0600
0E00
0E00
1F00
1F00
1F00
1F00
0F80
0780
0780
0380
0300
0300
0300
0F00
3E00
FE00
FE00
FC00
F800
F000
0000
0000
0000
0000
0000
0000
0000
0000
0000
0000
0000
0000
0000
0000
0000
0000
0000
0000
0000
0000
0000
0000
0000
0000
0000
0000
0000
0000
0000
0000
0000
0000
0000
0000
0000
0000
0000
0000
0000
0000
0000
0000
0000
0000
0000
0000
0000
0000
ENDCHAR
STARTCHAR char46
ENCODING 46
SWIDTH 513 0
DWIDTH 19 0
BBX 18 100 1 -50
BITMAP
000000
000000
000000
000000
000000
000000
000000
000000
000000
000000
000000
000000
000000
000000
000000
000000
000000
000000
000000
000000
000000
000000
000000
000000
000000
000000
000000
000000
000000
000000
000000
000000
000000
000000
000000
00F800
03FC00
03FE00
07FE00
07FF00
063F00
0C1F80
0C0F80
080780
0807C0
0FFFC0
1FFFC0
1FFF80
3FFF00
3FFF00
700E00
600000
E00000
E00000
E00000
E00000
E00000
E00000
E00000
E00000
700000
700000
700000
700000
700000
300000
380000
380000
380000
380000
380000
380000
180000
180000
180000
180000
180000
180000
180000
180000
100000
000000
000000
000000
000000
000000
000000
000000
000000
000000
000000
000000
000000
000000
000000
000000
000000
000000
000000
000000
ENDCHAR
STARTCHAR char47
ENCODING 47
SWIDTH 594 0
DWIDTH 22 0
BBX 21 100 1 -50
BITMAP
000000
000000
000000
000000
000000
000000
000000
000000
000000
000000
000000
000000
000000
000000
000000
000000
000000
000000
000000
000000
000000
000000
000000
000000
000000
000000
000000
000000
000000
000000
000000
000000
000000
000000
000000
000000
000000
000000
000000
000000
000000
003000
007800
007C00
07FC00
0FFE00
1FFF38
1FFFF8
3FFFF8
30FFF8
607FF8
E07FF8
E07FE0
E07F80
E03F00
E03F00
E03F00
E01F00
E01F00
E00E00
E00600
600000
700000
700000
700000
700000
700000
700000
700000
700000
700000
300000
300000
300000
300000
300000
300000
300000
300000
100000
100000
100000
100000
000000
000000
000000
000000
000000
000000
000000
000000
000000
000000
000000
000000
000000
000000
000000
000000
000000
ENDCHAR
STARTCHAR char48
ENCODING 48
SWIDTH 648 0
DWIDTH 24 0
BBX 24 100 0 -50
BITMAP
000000
000000
000000
000000
000000
000000
000000
000000
000000
000000
000000
000000
000000
000000
000000
000000
000000
000000
000000
000000
000000
000000
000000
000000
000000
000000
000000
000000
000000
000000
000000
000000
000400
001F00
003F00
007F80
007F80
00EF80
00C780
018380
018380
03C3C0
03E1E0
0FF1F0
FFFFFF
FFFFFF
FDFFFF
F8FF7F
F07F1F
C01E07
000000
000000
000000
000000
000000
000000
000000
000000
000000
000000
000000
000000
000000
000000
000000
000000
000000
000000
000000
000000
000000
000000
000000
000000
000000
000000
000000
000000
000000
000000
000000
000000
000000
000000
000000
000000
000000
000000
000000
000000
000000
000000
000000
000000
000000
000000
000000
000000
000000
000000
ENDCHAR
STARTCHAR char49
ENCODING 49
SWIDTH 486 0
DWIDTH 18 0
BBX 18 100 0 -50
BITMAP
000000
000000
000000
000000
000000
000000
000000
000000
000000
000000
000000
000000
000000
000000
000000
000000
000000
000000
000000
000000
000000
000000
000000
000000
000000
000000
000000
000000
000000
000000
000000
000000
000000
001C00
003F00
007F00
00FF80
00FFC0
00C7C0
01C3C0
01C3C0
01C1C0
03E1C0
07F180
FFFF80
FFFF80
FEFF00
FE7E00
FC3C00
F00000
000000
000000
000000
000000
000000
000000
000000
000000
000000
000000
000000
000000
000000
000000
000000
000000
000000
000000
000000
000000
000000
000000
000000
000000
000000
000000
000000
000000
000000
000000
000000
000000
000000
000000
000000
000000
000000
000000
000000
000000
000000
000000
000000
000000
000000
000000
000000
000000
000000
000000
ENDCHAR
STARTCHAR char50
ENCODING 50
SWIDTH 837 0
DWIDTH 31 0
BBX 30 100 1 -50
BITMAP
00000000
00000000
00000000
00000000
00000000
00000000
00000000
00000040
000000E0
000000E0
000001F0
000001F0
000001F0
000001F0
000000F8
000000F8
000000FC
000000F8
000000E0
000000E0
000000E0
000000F0
000000F0
000000F0
00000070
00000070
00000070
00000070
00000078
00000078
00000038
00000038
00000038
00000038
00000038
00000038
0000003C
0000003C
0000003C
0000001C
0000001C
0000001C
0000001C
0000001C
0000001C
0000001C
0000001C
0000001C
0000001C
0000001C
4000000C
4000000C
0000000C
8000000C
80000008
80000018
80000018
C0000018
C0000030
E0000030
E0000070
700000E0
700001E0
780007C0
7E001FC0
3FFFFF80
3FFFFF00
1FFFFE00
0FFFFC00
07FFF000
01FFE000
003F0000
00000000
00000000
00000000
00000000
00000000
00000000
00000000
00000000
00000000
00000000
00000000
00000000
00000000
00000000
00000000
00000000
00000000
00000000
00000000
00000000
00000000
00000000
00000000
00000000
00000000
00000000
00000000
00000000
ENDCHAR
STARTCHAR char51
ENCODING 51
SWIDTH 1080 0
DWIDTH 40 0
BBX 37 100 3 -50
BITMAP
000000F000
000000F000
000000F000
000000F000
000000F000
000000F000
000000F000
000000F000
0000007000
0000007000
0000007000
0000007000
0000007000
0000007800
0000007800
0000007800
0000007800
0000007800
0000003800
0000003800
0000003800
0000003800
0000003800
0000003800
0000003800
0000003800
0000003800
0000003800
0000003C00
0000003C00
0000001C00
0000001C00
0000001C00
0000001C00
0000001C00
0000001C00
0000001C00
0000001E00
0000001E00
0000001E00
0000001F00
0000001F00
0000001F80
0000001FC0
0000001FF8
0000001FF8
0000001BF8
40000011F8
40000010F8
4000001038
4000003000
4000003000
C000003000
C000007000
E000006000
6000006000
700000E000
780001E000
7C0003C000
7E0007C000
3FC03F8000
3FFFFF0000
1FFFFF0000
0FFFFE0000
07FFFC0000
03FFF00000
00FFC00000
0000000000
0000000000
0000000000
0000000000
0000000000
0000000000
0000000000
0000000000
0000000000
0000000000
0000000000
0000000000
0000000000
0000000000
0000000000
0000000000
0000000000
0000000000
0000000000
0000000000
0000000000
0000000000
0000000000
0000000000
0000000000
0000000000
0000000000
0000000000
0000000000
0000000000
0000000000
0000000000
0000000000
ENDCHAR
STARTCHAR char52
ENCODING 52
SWIDTH 405 0
DWIDTH 15 0
BBX 15 100 0 -50
BITMAP
0E00
1E00
3E00
1E00
1E00
0E00
0E00
0E00
0E00
0E00
0E00
0F00
0700
0700
0700
0700
0700
0700
0700
0700
0700
0700
0700
0300
0380
0380
0380
0380
0380
0380
0380
0380
0380
0380
0380
03C0
03C0
03C0
03C0
03C0
03C0
07E0
0FE0
1FF8
FFFE
FCFE
F8FE
F87E
F03E
2006
0000
0000
0000
0000
0000
0000
0000
0000
0000
0000
0000
0000
0000
0000
0000
0000
0000
0000
0000
0000
0000
0000
0000
0000
0000
0000
0000
0000
0000
0000
0000
0000
0000
0000
0000
0000
0000
0000
0000
0000
0000
0000
0000
0000
0000
0000
0000
0000
0000
0000
ENDCHAR
STARTCHAR char53
ENCODING 53
SWIDTH 243 0
DWIDTH 9 0
BBX 9 100 0 -50
BITMAP
1800
1C00
3E00
7E00
3F00
3F00
3F80
1F80
1F80
1E00
1C00
1C00
1C00
1C00
1C00
1C00
1E00
1E00
1E00
0E00
0E00
0E00
0E00
0E00
0E00
0E00
0F00
0F00
0700
0700
0700
0700
0700
0700
0700
0700
0700
0700
0700
0700
0600
0600
0600
0E00
FC00
FC00
FC00
F800
F000
6000
0000
0000
0000
0000
0000
0000
0000
0000
0000
0000
0000
0000
0000
0000
0000
0000
0000
0000
0000
0000
0000
0000
0000
0000
0000
0000
0000
0000
0000
0000
0000
0000
0000
0000
0000
0000
0000
0000
0000
0000
0000
0000
0000
0000
0000
0000
0000
0000
0000
0000
ENDCHAR
STARTCHAR char54
ENCODING 54
SWIDTH 594 0
DWIDTH 22 0
BBX 22 100 0 -50
BITMAP
000060
0000E0
0001F0
0003F0
0000F0
0000F0
0000F8
0000F8
0000FC
0000FC
0000E0
0000E0
0000E0
0000F0
000070
000070
018070
01C070
03C070
020070
060070
060070
070070
07C070
07E070
03E078
01C038
00C038
00C038
FFC038
3F8038
1F0038
000038
000038
000038
000038
000038
000018
000018
000018
000010
000030
000020
0000E0
FFFFE0
FFFFC0
FFFFC0
FFFFC0
FFFF00
FFF000
000000
000000
000000
000000
000000
000000
000000
000000
000000
000000
000000
000000
000000
000000
000000
000000
000000
000000
000000
000000
000000
000000
000000
000000
000000
000000
000000
000000
000000
000000
000000
000000
000000
000000
000000
000000
000000
000000
000000
000000
000000
000000
000000
000000
000000
000000
000000
000000
000000
000000
ENDCHAR
STARTCHAR char55
ENCODING 55
SWIDTH 1134 0
DWIDTH 42 0
BBX 41 100 1 -50
BITMAP
000000018000
000000038000
000000038000
000000078000
000000078000
0000000F8000
000000078000
000000038000
000000038000
000000038000
00000003C000
00000003C000
00000003C000
00000001C000
00000001C000
00004001C000
0000E001C000
0000E001C000
00018001C000
00010001C000
00010000C000
00038000C000
0003E000C000
0003F000C000
0001F800C000
0000F000E000
00007000E000
00007000E000
0000E000E000
003FE000E000
000FC000E000
00038000E000
00000000E000
00000000E000
00000000E000
80000001F000
80000001F000
C0000001F000
C00000037000
C00000067000
E000000E7000
7000001C7800
7800003C3C00
7E0000F83E00
7FC007F03F80
3FFFFFF03F80
1FFFFFE01F80
1FFFFF800F80
0FFFFE000780
01FFF8000380
000E00000000
000000000000
000000000000
000000000000
000000000000
000000000000
000000000000
000000000000
000000000000
000000000000
000000000000
000000000000
000000000000
000000000000
000000000000
000000000000
000000000000
000000000000
000000000000
000000000000
000000000000
000000000000
000000000000
000000000000
000000000000
000000000000
000000000000
000000000000
000000000000
000000000000
000000000000
000000000000
000000000000
000000000000
000000000000
000000000000
000000000000
000000000000
000000000000
000000000000
000000000000
000000000000
000000000000
000000000000
000000000000
000000000000
000000000000
000000000000
000000000000
000000000000
ENDCHAR
STARTCHAR char56
ENCODING 56
SWIDTH 810 0
DWIDTH 30 0
BBX 30 100 0 -50
BITMAP
000001F0
000007F0
00003FF0
0000FFF0
0007FFE0
001FFF00
007FF000
00FF8000
03FC0000
07F00000
1FC00000
3F000000
3C000000
38000000
70000000
70000000
70000000
78000000
78000000
3C000000
3C000000
1E000000
1E000000
0F000000
0F000000
0F800000
07800000
07800000
03C00000
03E00000
01E00000
01F00000
00F00000
00F80000
007C0000
007C0000
007E0000
003F0000
003F8000
003F8000
002FC000
0067E000
0063F800
00E1FE00
FFE0FFFC
FFC07FFC
FFC03FFC
FFC01FFC
FF8007FC
FC0001FC
00000000
00000000
00000000
00000000
00000000
00000000
00000000
00000000
00000000
00000000
00000000
00000000
00000000
00000000
00000000
00000000
00000000
00000000
00000000
00000000
00000000
00000000
00000000
00000000
00000000
00000000
00000000
00000000
00000000
00000000
00000000
00000000
00000000
00000000
00000000
00000000
00000000
00000000
00000000
00000000
00000000
00000000
00000000
00000000
00000000
00000000
00000000
00000000
00000000
00000000
ENDCHAR
STARTCHAR char57
ENCODING 57
SWIDTH 459 0
DWIDTH 17 0
BBX 17 100 0 -50
BITMAP
000F80
003F80
00FF80
03FF80
0FFF00
1FF000
7FC000
FF0000
FC0000
F80000
E00000
E00000
E00000
E00000
F00000
F80000
FC0000
FC0000
FE0000
7F0000
3F0000
1F8000
0FC000
07C000
07E000
03E000
03F000
01F000
00F800
00F800
007C00
003C00
003E00
001E00
001F00
000F00
000700
000200
000600
000600
000600
000600
000E00
003C00
FFFC00
FFFC00
FFF800
FFF000
FFE000
FF0000
000000
000000
000000
000000
000000
000000
000000
000000
000000
000000
000000
000000
000000
000000
000000
000000
000000
000000
000000
000000
000000
000000
000000
000000
000000
000000
000000
000000
000000
000000
000000
000000
000000
000000
000000
000000
000000
000000
000000
000000
000000
000000
000000
000000
000000
000000
000000
000000
000000
000000
ENDCHAR
STARTCHAR char58
ENCODING 58
SWIDTH 891 0
DWIDTH 33 0
BBX 32 100 1 -50
BITMAP
00000000
00000000
00000000
00000000
00000000
00000000
00000000
00000000
00000000
00000000
00000000
00000000
00000000
00000000
00000000
00000000
00000000
00000000
00000000
00000000
00000000
00000000
00000000
00000C60
00001C70
00003FF8
00003FF8
00003FF8
00001CF0
00000870
00000000
00000000
00000000
00000000
000001C0
000003E0
000003F0
000007F8
000007F8
00000FF8
00000E7C
00000C3C
0000181E
0000180E
00001E1E
40001FFE
40001FFE
40001FFE
C0001FFF
C0000FFF
C00003FF
C0000007
C0000003
C0000006
C0000006
E0000006
E000000C
7000001C
7000003C
78000078
7E0001F8
3F800FF0
3FFFFFE0
1FFFFFC0
0FFFFF80
07FFFF00
03FFFC00
00FFF000
001E0000
00000000
00000000
00000000
00000000
00000000
00000000
00000000
00000000
00000000
00000000
00000000
00000000
00000000
00000000
00000000
00000000
00000000
00000000
00000000
00000000
00000000
00000000
00000000
00000000
00000000
00000000
00000000
00000000
00000000
00000000
00000000
ENDCHAR
STARTCHAR char59
ENCODING 59
SWIDTH 972 0
DWIDTH 36 0
BBX 35 100 1 -50
BITMAP
0000000000
0000000000
0000000000
0000000000
0000000000
0000000000
0000000000
0000000000
0000000000
0000000000
0000000000
0000000000
0000000000
0000000000
0000000000
0000000000
0000000000
0000000000
0000000000
0000000000
0000000000
0000000000
00000C7000
00001EF800
00003FF800
00001FF800
00000E7800
00000C7000
0000000000
0000000000
0000000000
0000000000
0000000000
000000C000
000001E000
000003F000
000003F800
000007F800
000007FC00
00000C3C00
00000C1C00
0000080E00
0000180E00
00001C0F00
40001FFFE0
40001FFFE0
40000FFFE0
40000FFFE0
400007FFE0
4000003FE0
C000000300
4000000300
6000000200
6000000200
6000000600
7000000E00
7000001C00
3800003C00
3C00007C00
3E0001F800
3FC01FF000
1FFFFFE000
0FFFFFC000
0FFFFF8000
07FFFF0000
03FFFC0000
00FFF00000
001F800000
0000000000
0000000000
0000000000
0000000000
0000000000
0000000000
0000000000
0000000000
0000000000
0000000000
0000000000
0000000000
0000000000
0000000000
0000000000
0000000000
0000000000
0000000000
0000000000
0000000000
0000000000
0000000000
0000000000
0000000000
0000000000
0000000000
0000000000
0000000000
0000000000
0000000000
0000000000
0000000000
ENDCHAR
STARTCHAR char60
ENCODING 60
SWIDTH 459 0
DWIDTH 17 0
BBX 17 100 0 -50
BITMAP
000000
000000
000000
000000
000000
000000
000000
000000
000000
000000
000000
000000
000000
000000
000000
000000
021000
073800
0FFC00
0FFC00
073C00
021800
000000
000000
000000
000000
000000
000000
003000
007800
00FC00
01FE00
03FF00
038E00
070600
060400
040400
0C0400
0C0800
0C1800
0E3800
0F7000
07F000
03E000
FFFF80
FFFF80
FFFF80
FF7F80
FC1F80
E00380
000000
000000
000000
000000
000000
000000
000000
000000
000000
000000
000000
000000
000000
000000
000000
000000
000000
000000
000000
000000
000000
000000
000000
000000
000000
000000
000000
000000
000000
000000
000000
000000
000000
000000
000000
000000
000000
000000
000000
000000
000000
000000
000000
000000
000000
000000
000000
000000
000000
000000
ENDCHAR
STARTCHAR char61
ENCODING 61
SWIDTH 297 0
DWIDTH 11 0
BBX 11 100 0 -50
BITMAP
0000
0000
0000
0000
0000
0000
0000
0000
0000
0000
0000
0000
0000
0000
6700
7F80
2380
0100
0000
0000
0000
0000
0000
0000
0600
0700
0F00
1F80
1380
2180
4180
40C0
40C0
40E0
7FE0
7FE0
7C60
3C40
0040
0040
00C0
00C0
00C0
0380
FF00
FF00
FE00
FC00
F000
C000
0000
0000
0000
0000
0000
0000
0000
0000
0000
0000
0000
0000
0000
0000
0000
0000
0000
0000
0000
0000
0000
0000
0000
0000
0000
0000
0000
0000
0000
0000
0000
0000
0000
0000
0000
0000
0000
0000
0000
0000
0000
0000
0000
0000
0000
0000
0000
0000
0000
0000
ENDCHAR
STARTCHAR char62
ENCODING 62
SWIDTH 297 0
DWIDTH 11 0
BBX 11 100 0 -50
BITMAP
0000
0000
0000
0000
0000
0000
0000
0000
0000
0000
0000
0000
0000
0000
0000
0000
0000
0000
0000
0000
0000
0000
0000
0000
0000
0000
0000
0000
0000
0600
0E00
0E00
1F00
1F00
1F00
0F00
0780
0780
0380
0300
0300
0300
0300
0700
FE00
FE00
FE00
FC00
F800
F000
0000
0000
0000
0000
0000
2000
7180
FBC0
FFE0
7FE0
73C0
2180
0000
0000
0000
0000
0000
0000
0000
0000
0000
0000
0000
0000
0000
0000
0000
0000
0000
0000
0000
0000
0000
0000
0000
0000
0000
0000
0000
0000
0000
0000
0000
0000
0000
0000
0000
0000
0000
0000
ENDCHAR
STARTCHAR char63
ENCODING 63
SWIDTH 837 0
DWIDTH 31 0
BBX 21 100 0 -50
BITMAP
000000
000000
000000
000000
000000
000000
000000
000000
000000
000000
000000
000000
000000
000000
000000
000000
000000
000000
000000
000000
000000
000000
000000
000000
000000
000000
000000
000000
000000
000000
000000
000000
000000
000000
000180
0007C0
0007E0
000FF0
000FF0
000FF0
0018F8
001878
001878
001838
001C38
001FF8
001FF8
001FF8
001FF8
0007F8
000038
000030
000030
000030
000070
000070
0000E0
0000E0
0001E0
0001C0
0003C0
0003C0
000780
000F80
001F00
003F00
007E00
00FE00
01FC00
07F800
0FF000
7FE000
FF8000
1E0000
000000
000000
000000
000000
000000
000000
000000
000000
000000
000000
000000
000000
000000
000000
000000
000000
000000
000000
000000
000000
000000
000000
000000
000000
000000
000000
ENDCHAR
STARTCHAR char64
ENCODING 64
SWIDTH 675 0
DWIDTH 25 0
BBX 25 100 0 -50
BITMAP
00000000
00000000
00000000
00000000
00000000
00000000
00000000
00000000
00000000
00000000
00000000
00000000
00000000
00000000
00000000
00000000
00000000
00000000
00000000
00000000
00000000
00000000
00000000
00000000
00000000
00000000
00000000
00000000
00000000
00000000
00000000
00000000
00000000
00000000
00000000
0000E000
0001F000
0003F800
0007F800
0007FC00
000C7C00
000C3C00
001C1C00
001C1C00
001F3C80
001FFF80
001FFF80
001FFF80
000FFF80
0007FF80
0000FF00
00001C00
00001C00
00001C00
00001800
00001800
00003800
00007800
00007800
0000F000
0001F000
0003F000
0007E000
000FE000
001FC000
003FC000
00FF8000
07FF0000
7FFE0000
FFFC0000
0FF00000
00000000
00000000
00000000
00000000
00000000
00000000
00000000
00000000
00000000
00000000
00000000
00000000
00000000
00000000
00000000
00000000
00000000
00000000
00000000
00000000
00000000
00000000
00000000
00000000
00000000
00000000
00000000
00000000
00000000
ENDCHAR
STARTCHAR char65
ENCODING 65
SWIDTH 378 0
DWIDTH 14 0
BBX 13 100 1 -50
BITMAP
0000
0000
0000
0000
0000
0000
0000
0000
0000
0000
0000
0000
0000
0000
0000
0000
0000
0000
0000
0000
30C0
79E0
7FF0
7FF0
7FF0
39E0
00C0
0000
0000
0000
0000
0000
0000
0300
0780
07C0
0FE0
0FF0
1FF0
31F8
30F8
3078
7078
7038
7038
F038
F870
FFF0
FFE0
7FE0
7FC0
1F00
0000
0000
0000
0000
0000
0000
0000
0000
0000
0000
0000
0000
0000
0000
0000
0000
0000
0000
0000
0000
0000
0000
0000
0000
0000
0000
0000
0000
0000
0000
0000
0000
0000
0000
0000
0000
0000
0000
0000
0000
0000
0000
0000
0000
0000
0000
0000
0000
ENDCHAR
STARTCHAR char66
ENCODING 66
SWIDTH 675 0
DWIDTH 25 0
BBX 18 100 7 -50
BITMAP
000000
000000
000000
000000
000000
000000
0C2000
1E7800
1F7C00
3FFC00
1FFC00
1E7C00
0E3800
001000
000000
000000
000000
000000
000000
003000
007000
007000
00F000
00F000
00F000
00F000
00F000
00F000
00F000
00F000
01F000
07F000
0FF000
1FF000
3CF000
70F000
607000
607000
E07000
F0F800
FFF800
FFFC00
FFFC00
7FFE00
3FFFC0
003FC0
001FC0
001FC0
000FC0
0007C0
000000
000000
000000
000000
000000
000000
000000
000000
000000
000000
000000
000000
000000
000000
000000
000000
000000
000000
000000
000000
000000
000000
000000
000000
000000
000000
000000
000000
000000
000000
000000
000000
000000
000000
000000
000000
000000
000000
000000
000000
000000
000000
000000
000000
000000
000000
000000
000000
000000
000000
ENDCHAR
STARTCHAR char67
ENCODING 67
SWIDTH 513 0
DWIDTH 19 0
BBX 19 100 0 -50
BITMAP
000000
000000
000000
000000
000000
000000
000000
000000
000000
000000
000000
000000
000000
000000
000000
000000
000000
000000
000000
000000
000000
000000
000000
000000
000000
000000
000000
000000
000000
000000
000000
000000
000000
000000
030000
030000
030000
030000
030000
070000
060000
0E0000
1E0700
FC1FE0
FC1FE0
F83FE0
F83FE0
F879E0
F860E0
18C000
18C000
188000
198000
198000
198000
198000
0D8000
0D8000
0F8000
0F8000
0F8000
0F8000
0F8000
0F8000
078000
078000
030000
000000
000000
000000
000000
000000
000000
000000
000000
000000
000000
000000
000000
000000
000000
000000
000000
000000
000000
000000
000000
000000
000000
000000
000000
000000
000000
000000
000000
000000
000000
000000
000000
000000
ENDCHAR
STARTCHAR char68
ENCODING 68
SWIDTH 135 0
DWIDTH 5 0
BBX 5 100 0 -50
BITMAP
00
00
00
00
00
00
00
00
00
00
00
00
00
00
00
00
00
00
00
00
00
00
00
00
00
00
00
00
00
00
00
00
00
00
00
00
00
00
00
00
00
00
00
00
F8
F8
F8
F8
F8
F8
00
00
00
00
00
00
00
00
00
00
00
00
00
00
00
00
00
00
00
00
00
00
00
00
00
00
00
00
00
00
00
00
00
00
00
00
00
00
00
00
00
00
00
00
00
00
00
00
00
00
ENDCHAR
STARTCHAR char69
ENCODING 69
SWIDTH 27 0
DWIDTH 1 0
BBX 1 100 0 -50
BITMAP
00
00
00
00
00
00
00
00
00
00
00
00
00
00
00
00
00
00
00
00
00
00
00
00
00
00
00
00
00
00
00
00
00
00
00
00
00
00
00
00
00
00
00
00
80
80
80
80
80
80
00
00
00
00
00
00
00
00
00
00
00
00
00
00
00
00
00
00
00
00
00
00
00
00
00
00
00
00
00
00
00
00
00
00
00
00
00
00
00
00
00
00
00
00
00
00
00
00
00
00
ENDCHAR
STARTCHAR char70
ENCODING 70
SWIDTH 999 0
DWIDTH 37 0
BBX 36 100 1 -50
BITMAP
0000000000
0000000000
0000000000
0000000000
0000000000
0000000000
0000000000
0000000000
0000000000
0000000000
0000000000
0000000000
0000000000
0000000000
0000000000
0000000000
0000000000
0000000000
0000000000
0000000000
0000000000
0000000000
0000000000
0000000000
0000000000
0000000000
00000000F0
00000003F0
00000007F0
00000007F0
0000000FF0
0000001FE0
0000001C00
0000003000
0000006000
0000006000
000000C000
000000C000
0000008000
0000018000
0000018000
0000018000
000001C000
000001F800
000001FFC0
000001FFF0
000001FFF0
000001FFF0
000000FFF0
40000007F0
4000000070
4000000060
4000000060
C000000060
6000000040
60000000C0
70000001C0
7800000780
7C00000F00
3E00007E00
3FC003FE00
1FFFFFF800
1FFFFFF000
0FFFFFE000
07FFFF8000
03FFFE0000
00FFE00000
0000000000
0000000000
0000000000
0000000000
0000000000
0000000000
0000000000
0000000000
0000000000
0000000000
0000000000
0000000000
0000000000
0000000000
0000000000
0000000000
0000000000
0000000000
0000000000
0000000000
0000000000
0000000000
0000000000
0000000000
0000000000
0000000000
0000000000
0000000000
0000000000
0000000000
0000000000
0000000000
0000000000
ENDCHAR
STARTCHAR char71
ENCODING 71
SWIDTH 972 0
DWIDTH 36 0
BBX 34 100 2 -50
BITMAP
0000000000
0000000000
0000000000
0000000000
0000000000
0000000000
0000000000
0000000000
0000000000
0000000000
0000000000
0000000000
0000000000
0000000000
0000000000
0000000000
0000000000
0000000000
0000000000
0000000000
0000000000
0000000000
0000000000
0000000000
0000000000
0000000000
0000000000
0000000000
0000000000
0000000000
0000000000
0000000000
0000000000
0000000000
0000000000
0000000000
0000000000
0000000000
0000000000
0000000000
0000000000
0000000000
0000000000
0000000000
00000001C0
0000000FC0
0000001FC0
0000003FC0
0000007FC0
000000FFC0
000001F000
0000018000
0000030000
0000030000
0000070000
4000070000
4000078000
40000FF800
00000FFF00
800007FF80
800007FF80
800001FF80
C000000F80
C000000780
C000000380
C000000300
E000000300
E000000600
F000000E00
7000000C00
7C00001C00
7E00007800
7F8000F000
3FE00FE000
3FFFFFC000
1FFFFF8000
0FFFFF0000
07FFFC0000
01FFF00000
000F800000
0000000000
0000000000
0000000000
0000000000
0000000000
0000000000
0000000000
0000000000
0000000000
0000000000
0000000000
0000000000
0000000000
0000000000
0000000000
0000000000
0000000000
0000000000
0000000000
0000000000
ENDCHAR
STARTCHAR char72
ENCODING 72
SWIDTH 351 0
DWIDTH 13 0
BBX 13 100 0 -50
BITMAP
0000
0000
0000
0000
0000
0000
0000
0000
0000
0000
0000
0000
0000
0000
0000
0000
0000
0000
0000
0000
0000
0000
0000
0000
0000
0000
0000
0000
0180
0380
0380
07C0
07C0
07C0
07C0
03C0
01E0
01E0
01E0
00C0
00C0
00C0
01C0
03C0
FF80
FF80
FF80
FF00
FE00
F800
0000
0000
0000
0000
0000
1860
1C70
3EF8
3FF8
3FF8
1CF0
0860
0000
0000
0000
0000
0000
0000
0000
0000
0000
0000
0000
0000
0000
0000
0000
0000
0000
0000
0000
0000
0000
0000
0000
0000
0000
0000
0000
0000
0000
0000
0000
0000
0000
0000
0000
0000
0000
0000
ENDCHAR
STARTCHAR char73
ENCODING 73
SWIDTH 432 0
DWIDTH 16 0
BBX 16 100 0 -50
BITMAP
0000
0000
0000
0000
0000
0000
0000
0000
0000
0000
0000
0000
0000
0000
0000
0000
0000
0000
0000
0000
0000
0000
0000
0000
0000
0000
0000
0000
0000
0000
0000
0000
0000
0000
0000
0000
0000
0040
00C0
00C0
01C0
01E0
03E0
1FF0
FFFF
FFFF
FF7F
FE7F
F83F
E01F
0000
0000
0000
0000
0000
0C30
1E78
1FFC
1FFC
1FFC
0E78
0638
0000
0000
0000
0000
0000
0000
0000
0000
0000
0000
0000
0000
0000
0000
0000
0000
0000
0000
0000
0000
0000
0000
0000
0000
0000
0000
0000
0000
0000
0000
0000
0000
0000
0000
0000
0000
0000
0000
ENDCHAR
STARTCHAR char74
ENCODING 74
SWIDTH 891 0
DWIDTH 33 0
BBX 32 100 1 -50
BITMAP
3FF38000
79FF8000
601F0000
00000000
00000000
00000000
00000030
00000070
000000F8
000000F8
000000F8
7000007C
7800007C
FC00007E
7E00007F
3F000078
1F800070
1FC00070
0FE00078
0FF00078
09F00078
00F80038
007C0038
003C0038
001E0038
000F0038
00078038
00038038
0003C038
0001E038
0000E038
0000F038
00007038
00007038
00003830
00001830
00001830
00000C30
00000C30
00000620
00000620
00000260
00000360
00000140
000001C0
000001C0
00000180
00000180
000003C0
000007C0
00000EC0
00001C40
000038C0
0000F9C0
0003FFC0
0007FFC0
0007FFC0
0007FF80
0007FF00
0003FC00
00000000
00000000
00000000
00000000
00000000
00000000
00000000
00000000
00000000
00000000
00000000
00000000
00000000
00000000
00000000
00000000
00000000
00000000
00000000
00000000
00000000
00000000
00000000
00000000
00000000
00000000
00000000
00000000
00000000
00000000
00000000
00000000
00000000
00000000
00000000
00000000
00000000
00000000
00000000
00000000
ENDCHAR
STARTCHAR char75
ENCODING 75
SWIDTH 891 0
DWIDTH 33 0
BBX 33 100 0 -50
BITMAP
0000000000
0400000780
0C00000F80
1C00003F00
1E0000FF00
1E0001FE00
1E0007F800
1E000FE000
1E003FC000
1E007F0000
0E01FC0000
0E03F00000
0E0FE00000
0E1F800000
0E7E000000
0E7C000000
0FF8000000
0FE0000000
0FE0000000
07E0000000
07F0000000
07F8000000
07FC000000
077C000000
077E000000
073F000000
061F800000
060FC00000
0607C00000
0603E00000
0701F00000
0701F80000
0700F80000
03007C0000
03003E0000
03001E0000
03001F0000
03000F0000
0300070000
0700060000
0700060000
0780060000
0F80040000
1FC00C0000
FFF03C0000
FFFFF80000
F9FFF80000
F9FFF00000
F0FFF00000
C03FC00000
0000000000
0000000000
0000000000
0000000000
0000000000
0000000000
0000000000
0000000000
0000000000
0000000000
0000000000
0000000000
0000000000
0000000000
0000000000
0000000000
0000000000
0000000000
0000000000
0000000000
0000000000
0000000000
0000000000
0000000000
0000000000
0000000000
0000000000
0000000000
0000000000
0000000000
0000000000
0000000000
0000000000
0000000000
0000000000
0000000000
0000000000
0000000000
0000000000
0000000000
0000000000
0000000000
0000000000
0000000000
0000000000
0000000000
0000000000
0000000000
0000000000
0000000000
ENDCHAR
STARTCHAR char76
ENCODING 76
SWIDTH 810 0
DWIDTH 30 0
BBX 30 100 0 -50
BITMAP
00000000
00000000
00000000
00000000
00000000
00000000
00000000
00000000
00000000
00000000
00000000
00002000
00007000
0000F800
0000FC00
0000FC00
00007800
00003000
00000000
00000000
00000000
00000000
00000000
00000200
00000F80
00000F80
00001FC0
00001FE0
00003FE0
000033E0
000061F0
000061F0
0000E0F0
0000E0F8
0000E0F8
0000F8F8
0001FFF8
0000FFF8
0000FF70
00007E70
00000070
00000070
00000060
00000040
000000C0
00000080
00000380
000007C0
00001FE0
80003FF0
80003FF8
80003FFC
80007FFC
8000003C
8000001C
8000000C
8000000C
C000000C
C0000008
C0000018
C0000038
E0000038
F00000F0
F00001F0
FC0007E0
7F007FE0
7FFFFFC0
3FFFFF80
1FFFFE00
0FFFFC00
03FFF000
007F0000
00000000
00000000
00000000
00000000
00000000
00000000
00000000
00000000
00000000
00000000
00000000
00000000
00000000
00000000
00000000
00000000
00000000
00000000
00000000
00000000
00000000
00000000
00000000
00000000
00000000
00000000
00000000
00000000
ENDCHAR
STARTCHAR char77
ENCODING 77
SWIDTH 972 0
DWIDTH 36 0
BBX 32 100 4 -50
BITMAP
00000000
00000000
00000000
00000000
00000000
00000000
00000000
00000000
00000000
00000000
00000000
00000000
00000000
00000000
00000000
00000000
00000000
00000000
00000000
00000000
00000000
00000000
00000000
00000000
00000000
00000000
00000000
00000000
00000000
00000020
00000020
00000020
00000060
000000E0
000081E0
0000FFE0
0000FFE0
0001FFE0
0000FF60
0000FE70
00007C70
00003830
00001830
00001838
00000C3F
00000C3F
00000C1F
0000041F
0000040F
00000407
00000400
00000400
00000C00
00000C00
00000C00
00001C00
00001C00
00003800
00007800
0000F800
0001F000
0003F000
800FF000
F07FE000
7FFFC000
3FFF8000
1FFF0000
0FFC0000
03F00000
00000000
00000000
00000000
00000000
00000000
00000010
00000030
00000078
000000FC
0000007E
0000003C
00000018
00000008
00000000
00000000
00000000
00000000
00000000
00000000
00000000
00000000
00000000
00000000
00000000
00000000
00000000
00000000
00000000
00000000
00000000
00000000
ENDCHAR
STARTCHAR char78
ENCODING 78
SWIDTH 972 0
DWIDTH 36 0
BBX 36 100 0 -50
BITMAP
00001C0000
00001C0000
00001C0000
00001C0000
0000180000
0000100000
0000000000
0000000000
0000004000
0002086000
0002086000
0003086000
000318E000
0001F7C000
0001E3C000
0000E18000
0000000080
0000000180
0000000380
00000003C0
00000E03C0
00001E01C0
00001E01C0
00000E01C0
00300E01C0
00300E00E0
00300E00E0
00300600E0
00300600E0
00300600E0
00300600E0
00700600E0
01F00600E0
07F00600E0
0F300600E0
1C10070060
1810070070
3010070070
2010070070
6010070070
E010070070
F018078070
F838078060
7FF80FC060
3FDE19E0E0
1F0FF1FFC0
060FF0FFC0
0007F0FF80
0007E07F00
0007C03F00
0001801C00
0000000000
0000000000
0000000000
0000000000
0000000000
0000000000
0000000000
0000000000
0000000000
0000000000
0000000000
0000000000
0000000000
0000000000
0000000000
0000000000
0000000000
0000000000
0000000000
0000000000
0000000000
0000000000
0000000000
0000000000
0000000000
0000000000
0000000000
0000000000
0000000000
0000000000
0000000000
0000000000
0000000000
0000000000
0000000000
0000000000
0000000000
0000000000
0000000000
0000000000
0000000000
0000000000
0000000000
0000000000
0000000000
0000000000
0000000000
0000000000
0000000000
ENDCHAR
STARTCHAR char79
ENCODING 79
SWIDTH 648 0
DWIDTH 24 0
BBX 24 100 0 -50
BITMAP
000000
000000
000000
000000
000000
000000
000000
000000
000000
000000
000000
000000
000000
000000
000180
0007E0
0007F0
000FF8
000FF8
001DFC
00187E
00303E
00301E
00703F
00FFFF
03FFFF
03FFFE
07FFFE
0FFFFC
0FC000
0F0000
0E0000
0C0000
0C0000
0C0000
080000
0C0000
0C0000
040000
060000
060000
030000
038000
03C000
FFF000
FFFE00
FFFFC0
FFFF80
FFFF00
FFFF00
007E00
000000
000000
000000
000000
000000
000000
000000
000000
000000
000000
000000
000000
000000
000000
000000
000000
000000
000000
000000
000000
000000
000000
000000
000000
000000
000000
000000
000000
000000
000000
000000
000000
000000
000000
000000
000000
000000
000000
000000
000000
000000
000000
000000
000000
000000
000000
000000
000000
000000
ENDCHAR
STARTCHAR char80
ENCODING 80
SWIDTH 837 0
DWIDTH 31 0
BBX 31 100 0 -50
BITMAP
00000000
00000000
00000000
00000000
00000000
00000000
00000000
00000000
00000000
00000000
00000000
00000000
00000000
00000F80
00001FC0
00003FC0
00003FE0
00003FE0
000061F0
000061F0
0000C0F0
0000C3F0
0003FFE0
000FFFE0
001FFFC0
007FFF80
01FF8000
07F00000
0FC00000
0FC00000
1FF80000
3FFFE000
1FFFFFFE
03FFFFFC
000FFFFC
0001FFF8
0007FFF0
000FF800
001FE000
007F8000
00FE0000
01FC0000
07F80000
1FF00000
FFE00000
FFC00000
FF800000
FF000000
FC000000
F0000000
00000000
00000000
00000000
00000000
00000000
00000000
00000000
00000000
00000000
00000000
00000000
00000000
00000000
00000000
00000000
00000000
00000000
00000000
00000000
00000000
00000000
00000000
00000000
00000000
00000000
00000000
00000000
00000000
00000000
00000000
00000000
00000000
00000000
00000000
00000000
00000000
00000000
00000000
00000000
00000000
00000000
00000000
00000000
00000000
00000000
00000000
00000000
00000000
00000000
00000000
ENDCHAR
STARTCHAR char81
ENCODING 81
SWIDTH 1026 0
DWIDTH 38 0
BBX 37 100 1 -50
BITMAP
0000000400
0000000C00
0000000E00
0000001E00
0000001F00
0000001F00
0000001F80
0000001F80
0000001FC0
0000000F80
0000000E00
0000000E00
0000000E00
0000000F00
0000000F00
0000000F00
0000000700
0000000700
0000000700
0000000700
0000000700
0000000700
0000000700
0000000700
0000000700
0000000300
0000000300
0000000300
0000000300
0000000300
0000000300
0000000300
0000000300
0000000300
0000000300
0000000300
0000000300
0000000300
0000000300
0000000200
0000000600
2000000E00
200003FC00
600007FC00
600007FF00
60000FFFC0
40000FFFF0
400000FFF0
C000001FF0
C0000003F8
C0000000F0
C000000070
C000000030
E000000030
E000000060
E000000060
E0000000E0
F0000001C0
78000003C0
7C00000F80
7E00007F80
7F8003FF00
3FFFFFFE00
3FFFFFF800
1FFFFFF000
0FFFFFC000
0FFFFF0000
03FFFC0000
007F800000
0000000000
0000000000
0000000000
0000000000
0000000000
0000000000
0000000000
0000000000
0000000000
0000000000
0000000000
0000000000
0000000000
0000000000
0000000000
0000000000
0000000000
0000000000
0000000000
0000000000
0000000000
0000000000
0000000000
0000000000
0000000000
0000000000
0000000000
0000000000
0000000000
0000000000
0000000000
ENDCHAR
STARTCHAR char82
ENCODING 82
SWIDTH 675 0
DWIDTH 25 0
BBX 19 100 6 -50
BITMAP
001C00
001C00
003E00
003E00
003E00
003F00
003F00
001F80
001F80
001E00
001C00
001E00
001E00
000E00
000E00
000E00
000E00
000E00
000E00
000600
000600
000600
000600
000700
000700
000700
000300
000300
000300
000300
000300
000300
000300
000300
000300
000300
000300
000200
000200
000600
031C00
07FC00
0FFC00
1FFF00
1FFF80
0FFFE0
0FFFE0
1C3FE0
7003C0
700000
700000
F00000
700000
700000
700000
700000
700000
700000
700000
700000
700000
700000
700000
700000
700000
300000
300000
300000
300000
300000
300000
300000
300000
100000
100000
100000
180000
180000
180000
180000
000000
000000
000000
000000
000000
000000
000000
000000
000000
000000
000000
000000
000000
000000
000000
000000
000000
000000
000000
000000
ENDCHAR
STARTCHAR char83
ENCODING 83
SWIDTH 513 0
DWIDTH 19 0
BBX 19 100 0 -50
BITMAP
060000
0E0000
0F0000
1F0000
1F8000
0F8000
0FC000
0FC000
0FC000
0FC000
0F8000
0F0000
0F0000
0F0000
0F0000
0F0000
0F0000
070000
070000
070000
070000
070000
070000
070000
070000
078000
070000
030000
030000
038000
038000
038000
038000
038000
038000
038000
038000
038000
038000
038000
038000
038000
01C000
01C000
F1C000
FFE000
FFF800
FFFC00
FFFE00
FFFF80
00FFE0
001FC0
000FC0
000F80
000380
000100
000000
000000
000000
000000
000000
000000
000000
000000
000000
000000
000000
000000
000000
000000
000000
000000
000000
000000
000000
000000
000000
000000
000000
000000
000000
000000
000000
000000
000000
000000
000000
000000
000000
000000
000000
000000
000000
000000
000000
000000
000000
000000
000000
000000
ENDCHAR
STARTCHAR char84
ENCODING 84
SWIDTH 891 0
DWIDTH 33 0
BBX 33 100 0 -50
BITMAP
0000F80000
0000FC0000
0000FC0000
00007C0000
00007E0000
00007C0000
0000700000
0000700000
0000700000
0000700000
0000700000
0000700000
0000700000
0000700000
0000700000
0000700000
0000700000
0000700000
0000300000
0000300000
0000300000
0000300000
0000300000
0000300000
0000300000
0000200000
0000600000
0000C00000
0001C00000
000F800000
01FF000000
03FE000000
03FF000000
07FF800000
07FFE00000
00FFF80000
000FFF8000
0001FFFE00
0000FFFF80
00003FFF80
00001FFF80
00003FFF00
0000FFFE00
0007FF8000
003FFC0000
FFFFF00000
FFFF800000
FFFF000000
FFFC000000
FFF0000000
FE00000000
0000000000
0000000000
0000000000
0000000000
0000000000
0000080000
00001C0000
00003E0000
00003E0000
00003E0000
00001C0000
0000000000
0000000000
0000000000
0000000000
0000000000
0000000000
0000000000
0000000000
0000000000
0000000000
0000000000
0000000000
0000000000
0000000000
0000000000
0000000000
0000000000
0000000000
0000000000
0000000000
0000000000
0000000000
0000000000
0000000000
0000000000
0000000000
0000000000
0000000000
0000000000
0000000000
0000000000
0000000000
0000000000
0000000000
0000000000
0000000000
0000000000
0000000000
ENDCHAR
STARTCHAR char85
ENCODING 85
SWIDTH 540 0
DWIDTH 20 0
BBX 9 100 11 -50
BITMAP
0000
0000
0000
0000
0000
0000
0000
0000
0000
0000
0000
4000
E000
E000
E000
F000
F000
F000
7800
7800
7800
3C00
3C00
3C00
1C00
1E00
1E00
0E00
0E00
0700
0700
0700
0300
0300
0300
0380
0180
0180
0180
0180
0080
0080
0080
0000
0000
0000
0000
0000
0000
0000
0000
0000
0000
0000
0000
0000
0000
0000
0000
0000
0000
0000
0000
0000
0000
0000
0000
0000
0000
0000
0000
0000
0000
0000
0000
0000
0000
0000
0000
0000
0000
0000
0000
0000
0000
0000
0000
0000
0000
0000
0000
0000
0000
0000
0000
0000
0000
0000
0000
0000
ENDCHAR
STARTCHAR char86
ENCODING 86
SWIDTH 729 0
DWIDTH 27 0
BBX 12 100 15 -50
BITMAP
0000
0000
0000
0000
0000
0000
0000
0000
0000
0000
4000
C010
E030
F0F0
FFF0
FFF0
FFF0
FFE0
7FE0
7F80
3C00
3C00
3E00
1E00
1E00
0F00
0F00
0F00
0700
0780
0780
0380
0380
03C0
01C0
01C0
01C0
00C0
00C0
00C0
00C0
00C0
0040
0040
0040
0000
0000
0000
0000
0000
0000
0000
0000
0000
0000
0000
0000
0000
0000
0000
0000
0000
0000
0000
0000
0000
0000
0000
0000
0000
0000
0000
0000
0000
0000
0000
0000
0000
0000
0000
0000
0000
0000
0000
0000
0000
0000
0000
0000
0000
0000
0000
0000
0000
0000
0000
0000
0000
0000
0000
ENDCHAR
STARTCHAR char87
ENCODING 87
SWIDTH 702 0
DWIDTH 26 0
BBX 17 100 9 -50
BITMAP
000000
000000
000000
000000
000000
000000
000000
000000
000000
000000
404080
604080
70E180
7DF780
FFFF80
FFFF00
FFFF00
7FFF00
3FFE00
3FCC00
1E0000
1E0000
1E0000
0F0000
0F0000
0F0000
078000
078000
078000
03C000
03C000
03C000
01C000
01E000
01E000
00E000
00E000
00E000
006000
006000
006000
006000
006000
006000
002000
002000
002000
000000
000000
000000
000000
000000
000000
000000
000000
000000
000000
000000
000000
000000
000000
000000
000000
000000
000000
000000
000000
000000
000000
000000
000000
000000
000000
000000
000000
000000
000000
000000
000000
000000
000000
000000
000000
000000
000000
000000
000000
000000
000000
000000
000000
000000
000000
000000
000000
000000
000000
000000
000000
000000
ENDCHAR
STARTCHAR char88
ENCODING 88
SWIDTH 675 0
DWIDTH 25 0
BBX 15 100 10 -50
BITMAP
0000
0000
0000
0000
0000
0000
0000
0000
0000
0000
0000
0000
0000
0000
0000
0100
0380
0780
0F80
1F80
1F80
3F80
3800
3000
2000
6000
6000
F000
F800
FE00
FF00
FF80
7F80
3F80
0F80
0780
0300
0200
0600
0600
0E00
0E00
1F00
1F80
1FC0
1FF0
1FFC
0FFE
03FC
01FC
0078
0018
0000
0000
0000
0000
0000
0000
0000
0000
0000
0000
0000
0000
0000
0000
0000
0000
0000
0000
0000
0000
0000
0000
0000
0000
0000
0000
0000
0000
0000
0000
0000
0000
0000
0000
0000
0000
0000
0000
0000
0000
0000
0000
0000
0000
0000
0000
0000
0000
ENDCHAR
STARTCHAR char89
ENCODING 89
SWIDTH 675 0
DWIDTH 25 0
BBX 14 100 11 -50
BITMAP
0000
0000
0000
0000
0000
0000
0000
0000
0000
0000
0000
0000
0000
0000
0000
0000
0000
0000
0000
0000
0000
0000
0000
0000
0780
0FC0
0FE0
0FF0
1FF8
1FF8
39FC
307C
303C
703C
6018
6018
6038
E038
F070
FFF0
FFF0
FFE0
FFE0
7FC0
3F00
1C00
0000
0000
0000
0000
0000
0000
0000
0000
0000
0000
0000
0000
0000
0000
0000
0000
0000
0000
0000
0000
0000
0000
0000
0000
0000
0000
0000
0000
0000
0000
0000
0000
0000
0000
0000
0000
0000
0000
0000
0000
0000
0000
0000
0000
0000
0000
0000
0000
0000
0000
0000
0000
0000
0000
ENDCHAR
STARTCHAR char90
ENCODING 90
SWIDTH 648 0
DWIDTH 24 0
BBX 19 100 5 -50
BITMAP
000000
000000
000000
000000
000000
000000
000000
000000
000000
000000
000000
000000
000000
000000
000000
800000
C00000
E00000
FFF800
FFF800
7FF800
7FF800
7FF800
7FF800
3FF800
001C00
001C00
000C00
000C00
000C00
000C00
000C00
000E00
000E00
000E00
000E00
000F00
000700
000700
000700
000780
000780
000780
0007C0
0007C0
0003E0
0003E0
0003E0
0003E0
0003C0
0001C0
000180
000000
000000
000000
000000
000000
000000
000000
000000
000000
000000
000000
000000
000000
000000
000000
000000
000000
000000
000000
000000
000000
000000
000000
000000
000000
000000
000000
000000
000000
000000
000000
000000
000000
000000
000000
000000
000000
000000
000000
000000
000000
000000
000000
000000
000000
000000
000000
000000
ENDCHAR
STARTCHAR char91
ENCODING 91
SWIDTH 702 0
DWIDTH 26 0
BBX 22 100 4 -50
BITMAP
000000
000000
000000
000000
000000
000000
000000
000000
000000
000000
000000
000000
000000
000000
000000
400000
E00030
E00038
F00038
F00078
F80078
F800FC
FC00FC
FC01FC
7E01F8
7E01F0
3E03E0
1F03E0
1F03C0
0F03C0
078780
078780
038780
03C700
01C700
01CE00
01CE00
00EE00
00FE00
00FE00
007C00
007C00
007C00
003C00
003C00
003C00
003800
003800
003800
001800
001800
001000
000000
000000
000000
000000
000000
000000
000000
000000
000000
000000
000000
000000
000000
000000
000000
000000
000000
000000
000000
000000
000000
000000
000000
000000
000000
000000
000000
000000
000000
000000
000000
000000
000000
000000
000000
000000
000000
000000
000000
000000
000000
000000
000000
000000
000000
000000
000000
000000
ENDCHAR
STARTCHAR char92
ENCODING 92
SWIDTH 702 0
DWIDTH 26 0
BBX 22 100 4 -50
BITMAP
000000
000000
000000
000000
000000
000000
000000
000000
000000
000000
000000
000000
000000
000000
000000
000000
003000
003000
003000
003000
007000
007000
007800
007800
007800
00F800
00FC00
00FC00
00FC00
01CC00
01CE00
01CE00
01CF00
038700
038700
078780
078380
0783C0
0F03C0
0F01E0
1F01E0
1F01F0
3E00F8
7E00F8
FE007C
FC007C
FC007C
78003C
78003C
70001C
700008
000000
000000
000000
000000
000000
000000
000000
000000
000000
000000
000000
000000
000000
000000
000000
000000
000000
000000
000000
000000
000000
000000
000000
000000
000000
000000
000000
000000
000000
000000
000000
000000
000000
000000
000000
000000
000000
000000
000000
000000
000000
000000
000000
000000
000000
000000
000000
000000
000000
ENDCHAR
STARTCHAR char93
ENCODING 93
SWIDTH 621 0
DWIDTH 23 0
BBX 16 100 7 -50
BITMAP
0000
0000
0000
0000
0000
0000
0000
0000
0000
0000
0000
0000
0000
0000
0000
0000
0F80
1FC0
1FC0
3FC0
3FC0
7FE0
60E0
4040
C040
C040
C040
E060
F060
FFE0
FFE0
FFE0
7F60
3E30
0430
0030
0030
0030
0038
0018
0018
001C
001C
001E
001E
000F
000F
000E
0006
0004
0000
0000
0000
0000
0000
0000
0000
0000
0000
0000
0000
0000
0000
0000
0000
0000
0000
0000
0000
0000
0000
0000
0000
0000
0000
0000
0000
0000
0000
0000
0000
0000
0000
0000
0000
0000
0000
0000
0000
0000
0000
0000
0000
0000
0000
0000
0000
0000
0000
0000
ENDCHAR
STARTCHAR char94
ENCODING 94
SWIDTH 459 0
DWIDTH 17 0
BBX 6 100 11 -50
BITMAP
00
00
00
00
00
00
00
00
00
00
00
00
00
00
00
00
00
00
00
00
00
00
00
00
00
00
00
30
78
7C
FC
7C
78
30
00
00
00
00
00
00
00
00
00
00
00
00
00
00
00
00
00
00
00
00
00
00
00
00
00
00
00
00
00
00
00
00
00
00
00
00
00
00
00
00
00
00
00
00
00
00
00
00
00
00
00
00
00
00
00
00
00
00
00
00
00
00
00
00
00
00
ENDCHAR
STARTCHAR char97
ENCODING 97
SWIDTH 324 0
DWIDTH 12 0
BBX 8 100 4 -50
BITMAP
00
00
00
00
30
70
F8
F8
F8
FC
FC
FE
7F
78
78
78
78
78
7C
7C
3C
3C
3C
3C
3C
3C
3C
3C
3C
3C
3C
3C
1E
1E
1E
1E
1E
1E
1E
1E
1E
1E
1E
1E
1E
1C
1C
1C
1C
18
38
30
30
20
00
00
00
00
00
00
00
00
00
00
00
00
00
00
00
00
00
00
00
00
00
00
00
00
00
00
00
00
00
00
00
00
00
00
00
00
00
00
00
00
00
00
00
00
00
00
ENDCHAR
STARTCHAR char98
ENCODING 98
SWIDTH 675 0
DWIDTH 25 0
BBX 17 100 8 -50
BITMAP
000000
000000
000000
000000
000000
000000
000000
000000
000000
000000
000000
000000
000000
000000
000000
000000
000000
000000
000000
000000
000000
000000
000000
000000
000000
000000
000000
018000
01C000
01C000
39CC00
39DE00
3DFE00
1FFC00
0FF800
07F000
67F200
FFFF80
FFFF80
07FF00
03F000
0FF800
1F9C00
3D9E00
3C0E00
180C00
01C000
01C000
008000
000000
000000
000000
000000
000000
000000
000000
000000
000000
000000
000000
000000
000000
000000
000000
000000
000000
000000
000000
000000
000000
000000
000000
000000
000000
000000
000000
000000
000000
000000
000000
000000
000000
000000
000000
000000
000000
000000
000000
000000
000000
000000
000000
000000
000000
000000
000000
000000
000000
000000
000000
ENDCHAR
STARTCHAR char99
ENCODING 99
SWIDTH 405 0
DWIDTH 15 0
BBX 15 100 0 -50
BITMAP
0000
0000
0000
0000
0000
0000
0000
0000
0000
0000
0000
0000
0000
0000
0000
0000
0000
0000
0000
0000
0000
0000
0000
0000
0000
0000
0000
0000
0000
0000
0000
0000
0000
0000
0000
0000
0000
0040
00C0
01C0
01C0
03C0
03C0
0FE0
FFFE
FFFE
FEFE
FC7E
F83E
E00E
0000
0000
0000
0000
0180
03C0
07E0
07E0
07C0
03C0
0100
0000
0000
0000
0000
0000
0000
0000
0000
0000
0000
0000
0000
0000
0000
0000
0000
0000
0000
0000
0000
0000
0000
0000
0000
0000
0000
0000
0000
0000
0000
0000
0000
0000
0000
0000
0000
0000
0000
0000
ENDCHAR
STARTCHAR char100
ENCODING 100
SWIDTH 837 0
DWIDTH 31 0
BBX 8 100 0 -50
BITMAP
00
00
00
00
00
00
00
00
00
00
00
00
00
00
00
00
00
00
00
00
00
00
00
00
00
00
00
00
00
00
18
18
3C
3E
3E
3E
1E
0E
0E
06
06
06
0E
0C
FC
FC
F8
F8
F0
C0
00
00
00
00
0C
1E
1F
1F
1E
0E
00
00
00
00
00
00
00
00
00
00
00
00
00
00
00
00
00
00
00
00
00
00
00
00
00
00
00
00
00
00
00
00
00
00
00
00
00
00
00
00
ENDCHAR
STARTCHAR char101
ENCODING 101
SWIDTH 378 0
DWIDTH 14 0
BBX 13 100 1 -50
BITMAP
0800
1800
3800
7800
F800
F800
7800
7800
7800
7800
7800
7800
7800
3800
3800
3800
3800
3800
3800
3800
3800
3800
3800
3800
3800
3800
3C00
3C00
3C00
3C00
3C00
3C00
3C00
3C00
3C00
3C00
3C00
3C00
3C00
3E00
1E00
1F00
1F80
1FF0
0FF8
0FF8
07F8
01F8
0078
0018
0000
0000
0000
0000
0000
0000
0000
0000
0000
0000
0000
0000
0000
0000
0000
0000
0000
0000
0000
0000
0000
0000
0000
0000
0000
0000
0000
0000
0000
0000
0000
0000
0000
0000
0000
0000
0000
0000
0000
0000
0000
0000
0000
0000
0000
0000
0000
0000
0000
0000
ENDCHAR
STARTCHAR char102
ENCODING 102
SWIDTH 972 0
DWIDTH 36 0
BBX 35 100 1 -50
BITMAP
0000000000
0000000000
0000000000
0000000000
0000000000
0000000000
0000000000
0000000000
0000000000
0000000000
0000000000
0000000000
0000000000
0000000000
0000000000
0000000000
0000000000
0000000000
0000000000
0000000000
0000000000
0000000000
0000000000
0000000000
0000000000
0000000000
0000000000
0000000000
0000000000
0000000000
0000000000
0000000000
0000000080
00000001C0
00000001C0
00000003E0
00000003E0
00000001E0
00000001E0
80000000E0
80000000E0
C0000000E0
C000000060
E000000060
7000000060
7800000040
7E000000C0
7F80000180
3FFE000780
3FFFFFFF00
1FFFFFFE00
0FFFFFFC00
03FFFFF000
003FFF0000
0000000000
0000000000
0000000000
0000000000
0000000000
0000700000
0000F80000
0000F80000
0000F80000
0000700000
0000200000
0000000000
0000000000
0000000000
0000000000
0000000000
0000000000
0000000000
0000000000
0000000000
0000000000
0000000000
0000000000
0000000000
0000000000
0000000000
0000000000
0000000000
0000000000
0000000000
0000000000
0000000000
0000000000
0000000000
0000000000
0000000000
0000000000
0000000000
0000000000
0000000000
0000000000
0000000000
0000000000
0000000000
0000000000
0000000000
ENDCHAR
STARTCHAR char103
ENCODING 103
SWIDTH 1188 0
DWIDTH 44 0
BBX 43 100 1 -50
BITMAP
000000000000
000000000000
000000000000
000000000000
000000000000
000000000000
000000000000
000000000000
000000000000
000000000000
000000000000
000000000000
000000000000
000000000000
000000000000
000000000000
000000000000
000000000000
000000000000
000000000000
000000000000
000000000000
000000000000
000000000000
000000000000
000000000000
000000000000
000000000000
000000000000
000000000000
000000000000
000000000000
000000000000
000000000000
000000000000
000000000000
800000000000
800000000000
800000000800
C00000003800
E00000007800
F0000007FC00
7800003FFC00
7F8007FFFE00
7FFFFFFFCFE0
3FFFFFFF0FE0
1FFFFFF807E0
0FFFFFE007E0
07FFFE0003E0
007F800000E0
000000000000
000000000000
000000000000
000000000000
0000E0000000
0000F0000000
0001F0000000
0000F0000000
0000E0000000
000040000000
000000000000
000000000000
000000000000
000000000000
000000000000
000000000000
000000000000
000000000000
000000000000
000000000000
000000000000
000000000000
000000000000
000000000000
000000000000
000000000000
000000000000
000000000000
000000000000
000000000000
000000000000
000000000000
000000000000
000000000000
000000000000
000000000000
000000000000
000000000000
000000000000
000000000000
000000000000
000000000000
000000000000
000000000000
000000000000
000000000000
000000000000
000000000000
000000000000
000000000000
ENDCHAR
STARTCHAR char104
ENCODING 104
SWIDTH 864 0
DWIDTH 32 0
BBX 32 100 0 -50
BITMAP
00000000
00000000
00000000
00000000
00000000
00000000
00000000
00000000
00000000
00000000
00000000
00000000
00000000
00000000
00000000
00000000
00018000
0003C000
0003E000
0003E000
0003C000
00018000
00000000
00000000
00000000
00000000
00000000
1F000000
3FE00000
3FFC0000
7FFF0000
7FFFE000
007FFF0E
0007FFFE
0000FFFE
00007FFC
0000FFFC
0001FF80
0003FC00
000FFC00
001FC400
003F0400
007E0600
03FC0780
FFF807FF
FFF003FF
FFE003FF
FFC001FF
FE0001FF
E000000F
00000000
00000000
00000000
00000000
00000000
00000000
00000000
00000000
00000000
00000000
00000000
00000000
00000000
00000000
00000000
00000000
00000000
00000000
00000000
00000000
00000000
00000000
00000000
00000000
00000000
00000000
00000000
00000000
00000000
00000000
00000000
00000000
00000000
00000000
00000000
00000000
00000000
00000000
00000000
00000000
00000000
00000000
00000000
00000000
00000000
00000000
00000000
00000000
00000000
00000000
ENDCHAR
STARTCHAR char105
ENCODING 105
SWIDTH 810 0
DWIDTH 30 0
BBX 30 100 0 -50
BITMAP
00000000
00000000
00000000
00000000
00000000
00000000
00000000
00000000
00000000
00000000
00000000
00000000
00000000
00000000
00000000
00000000
00000000
00018000
0003C000
0003E000
0003E000
0003C000
00018000
00000000
00000000
00000000
00000000
00000000
1FC00000
1FF00000
3FFE0000
3FFFC000
7FFFFE00
007FFFFC
000FFFFC
0001FFFC
0000FFF8
0001FFF0
0007FF00
0007F800
000FC000
001F8000
007E0000
00FC0000
FFF80000
FFF00000
FFE00000
FFC00000
FF800000
F8000000
00000000
00000000
00000000
00000000
00000000
00000000
00000000
00000000
00000000
00000000
00000000
00000000
00000000
00000000
00000000
00000000
00000000
00000000
00000000
00000000
00000000
00000000
00000000
00000000
00000000
00000000
00000000
00000000
00000000
00000000
00000000
00000000
00000000
00000000
00000000
00000000
00000000
00000000
00000000
00000000
00000000
00000000
00000000
00000000
00000000
00000000
00000000
00000000
00000000
00000000
ENDCHAR
STARTCHAR char106
ENCODING 106
SWIDTH 837 0
DWIDTH 31 0
BBX 27 100 1 -50
BITMAP
00000000
00000000
00000000
00000000
00000000
00000000
00000000
00000000
00000000
00000000
00000000
00000000
00000000
00000000
00000000
00000000
00030000
00030000
00078000
00078000
00078000
00038000
00038000
00038000
00038000
0001C000
0001C000
0001C000
0001C000
0000C000
0000C000
0000E000
0000E000
0000E000
00006000
00006000
00007000
00007000
00007000
00007800
00007800
0000B800
00009C00
80019E00
80038FE0
C0070FE0
F03F07E0
FFFE03E0
FFFC01E0
7FF80060
7FE00000
3FC00000
0F000000
00000000
00000000
00000000
00000000
00000000
00000000
00000000
00000000
00000000
00000000
00000000
00000000
00000000
00000000
00000000
00000000
00000000
00000000
00000000
00000000
00000000
00000000
00000000
00000000
00000000
00000000
00000000
00000000
00000000
00000000
00000000
00000000
00000000
00000000
00000000
00000000
00000000
00000000
00000000
00000000
00000000
00000000
00000000
00000000
00000000
00000000
00000000
ENDCHAR
STARTCHAR char107
ENCODING 107
SWIDTH 891 0
DWIDTH 33 0
BBX 32 100 1 -50
BITMAP
00000000
00000000
00000000
00000000
00000000
00000000
00000000
00000000
00000000
00000000
00000000
00000000
00000000
00000000
00000000
00000000
00000000
00000000
00000000
00000000
00000000
00000000
00000000
00000000
00000000
00000000
00000000
00000000
00000000
00038000
0003C000
0007E000
0007E000
0007C000
0003C000
00000000
00000000
00000000
00000000
00000000
0FF00000
1FFE0000
3FFFC000
3FFFFFF8
7FFFFFF8
701FFFF8
E007FFF8
C00FFFE0
001FE000
003F0000
007C0000
00F00000
01E00000
03800000
07000000
07000000
0E000000
0C000000
1C000000
18000000
18000000
30000000
30000000
30000000
30000000
70000000
70000000
70000000
70000000
70000000
70000000
78000000
78000000
38000000
3C000000
3C000000
3E000000
1F000000
1F800000
1FC00000
0FE00000
0FF80000
07FF0000
03FFFCFF
01FFFFFE
007FFFF8
001FFFC0
0007FF00
00007000
00000000
00000000
00000000
00000000
00000000
00000000
00000000
00000000
00000000
00000000
00000000
ENDCHAR
STARTCHAR char108
ENCODING 108
SWIDTH 891 0
DWIDTH 33 0
BBX 32 100 1 -50
BITMAP
00000000
00000000
00000000
00000000
00000000
00000000
00000000
00000000
00000000
00000000
00000000
00000000
00000000
00000000
00000000
00000000
00000000
00000000
00000000
00000000
0001C000
0001E000
0003F000
0003F000
0003E000
0001C000
00000000
00000000
00000000
00000000
00000000
07F80000
0FFF8000
1FFFFFFC
1FFFFFFE
3FFFFFFC
3807FFFC
6003FFF8
C007FC00
001FCC00
003F0C00
003C0C00
00780E00
00F00F00
01E00FFF
01C007FF
038007FF
070007FF
060003FF
0E00007F
0C000000
0C000000
18000000
18000000
18000000
18000000
38000000
38000000
38000000
38000000
38000000
38000000
3C000000
3C000000
1C000000
1E000000
1E000000
1F000000
1F800000
0FC00000
0FE00000
07F80000
03FE0000
03FFC007
01FFFFFF
00FFFFFE
003FFFF0
000FFFE0
0001FF80
00000000
00000000
00000000
00000000
00000000
00000000
00000000
00000000
00000000
00000000
00000000
00000000
00000000
00000000
00000000
00000000
00000000
00000000
00000000
00000000
00000000
ENDCHAR
STARTCHAR char109
ENCODING 109
SWIDTH 837 0
DWIDTH 31 0
BBX 19 100 0 -50
BITMAP
000000
000000
000000
000000
000000
000000
000000
000000
000000
000000
000000
000000
000000
000000
000000
000000
000000
000000
000000
000000
000000
000000
000000
000000
000000
004000
00E000
01F800
03FC00
03FE00
01FF00
00FF00
003F80
000FC0
0007C0
0003E0
0003E0
0001E0
0000E0
0000E0
0000E0
0000E0
0000E0
0000C0
0000C0
0001C0
000780
7FFF80
FFFF80
FFFF00
FFFE00
FFFC00
FFF000
000000
000000
000000
000000
000000
000000
000000
000000
000000
000000
000000
000000
000000
000000
000000
000000
000000
000000
000000
000000
000000
000000
000000
000000
000000
000000
000000
000000
000000
000000
000000
000000
000000
000000
000000
000000
000000
000000
000000
000000
000000
000000
000000
000000
000000
000000
000000
ENDCHAR
STARTCHAR char110
ENCODING 110
SWIDTH 837 0
DWIDTH 31 0
BBX 28 100 0 -50
BITMAP
00000000
00000000
00000000
00000000
00000000
00000000
00000000
00000000
00000000
00000000
00000000
00000000
00000000
00000000
00000000
00000000
00000000
00000000
00000000
00000000
00000000
00000000
00000000
00000000
00000000
00000000
00000000
00000000
00000E00
00001F00
00003F00
00003F00
00001F00
00000E00
00000000
00000000
00000000
00000000
00000000
00000000
00001C00
00001C00
00001E00
00001FC0
00001FF0
00000FF0
00000FF0
000007F0
000007F0
00000770
00000300
00000300
00000300
00000300
00000300
00000300
00000700
00000700
00000700
00000700
00000F00
00000E00
00001E00
00003E00
00007C00
0000FC00
0001FC00
C003F800
F00FF000
7FFFF000
3FFFE000
1FFFC000
1FFF8000
0FFF0000
07FC0000
00000000
00000000
00000000
00000000
00000000
00000000
00000000
00000000
00000000
00000000
00000000
00000000
00000000
00000000
00000000
00000000
00000000
00000000
00000000
00000000
00000000
00000000
00000000
00000000
00000000
ENDCHAR
STARTCHAR char111
ENCODING 111
SWIDTH 837 0
DWIDTH 31 0
BBX 23 100 1 -50
BITMAP
000000
000000
000000
000000
000000
000000
000000
000000
000000
000000
000000
000000
000000
000180
0003C0
0003E0
0003E0
0001C0
000180
000000
000000
000000
000000
000000
000000
000000
000000
000000
000030
000038
000078
000078
00007C
00007C
00003C
00003C
00001E
00001E
00001E
00000E
00000E
00000E
00000C
00000C
00000C
00000C
00000C
00001C
000018
000018
000038
000078
000070
0000F0
0001E0
0003E0
C007E0
F01FC0
7FFFC0
3FFF80
3FFF00
1FFE00
0FFC00
07F800
000000
000000
000000
000000
000000
000000
000000
000000
000000
000000
000000
000000
000000
000000
000000
000000
000000
000000
000000
000000
000000
000000
000000
000000
000000
000000
000000
000000
000000
000000
000000
000000
000000
000000
000000
000000
ENDCHAR
STARTCHAR char112
ENCODING 112
SWIDTH 1296 0
DWIDTH 48 0
BBX 47 100 1 -50
BITMAP
000000000000
000000000000
000000000000
000000000000
000000000000
000000000000
000000000000
000000000000
000000000000
000000000000
000000000000
000000000000
00000001C000
00000001E000
00000003E000
00000003E000
00000001E000
00000000C000
000000000000
000000063000
0000000F3800
0000001FFC00
0000000FFE00
0000000FFC00
000000073800
000000001000
000000000000
000000000000
000000000000
000000000000
000000000000
000000000000
000000000000
000000000000
000000000000
000000000000
000000000000
000000002020
000001806020
000001806060
000003C0E060
000003E1E0F0
000003FFFBF8
000003FFFFFC
400001FFFFFE
400001FFFFFE
400000FF7F9E
400000FE3F0E
800000FC1C06
C00000E00002
C00000E00000
C00000E00000
E00000C00000
E00000C00000
F00000C00000
F00001800000
7C0003800000
7E000F800000
7FC07F000000
3FFFFE000000
3FFFFC000000
1FFFF8000000
0FFFF0000000
03FFC0000000
00FE00000000
000000000000
000000000000
000000000000
000000000000
000000000000
000000000000
000000000000
000000000000
000000000000
000000000000
000000000000
000000000000
000000000000
000000000000
000000000000
000000000000
000000000000
000000000000
000000000000
000000000000
000000000000
000000000000
000000000000
000000000000
000000000000
000000000000
000000000000
000000000000
000000000000
000000000000
000000000000
000000000000
000000000000
000000000000
000000000000
ENDCHAR
STARTCHAR char113
ENCODING 113
SWIDTH 783 0
DWIDTH 29 0
BBX 29 100 0 -50
BITMAP
00000000
00000000
00000000
00000000
00000000
00000000
00000000
00000000
00000000
00000000
00000000
00000000
00000000
00070000
000F8000
000F8000
000F8000
00070000
00020000
00000000
0010C000
003CE000
007FF000
007FF000
003DE000
0018C000
00000000
00000000
00000000
00000000
00000000
00000000
00000000
00000000
00000000
00000000
00000000
00000000
01010100
01010100
03030300
07030300
0F8F8780
3FFFFFC0
FFFFFFF0
FFFFFFF8
FFFFFEF8
F9F9FC78
F0F0F838
C0402018
00000000
00000000
00000000
00000000
00000000
00000000
00000000
00000000
00000000
00000000
00000000
00000000
00000000
00000000
00000000
00000000
00000000
00000000
00000000
00000000
00000000
00000000
00000000
00000000
00000000
00000000
00000000
00000000
00000000
00000000
00000000
00000000
00000000
00000000
00000000
00000000
00000000
00000000
00000000
00000000
00000000
00000000
00000000
00000000
00000000
00000000
00000000
00000000
00000000
00000000
ENDCHAR
STARTCHAR char114
ENCODING 114
SWIDTH 702 0
DWIDTH 26 0
BBX 26 100 0 -50
BITMAP
00000000
00000000
00000000
00000000
00000000
00000000
00000000
00000000
00000000
00000000
00000000
00000000
00000000
000C0000
001E0000
003E0000
001E0000
001C0000
00000000
00000000
00030000
00738000
00FFC000
00FF8000
00738000
00010000
00000000
00000000
00000000
00000000
00000000
00000000
00000180
00000380
00000180
00000180
00000180
000000C0
04008080
04008080
0C008080
1C018080
1E03C080
7F07E180
FFFFFF00
FFFFFF00
F3FE7E00
E1FC7E00
C0F83C00
00601000
00000000
00000000
00000000
00000000
00000000
00000000
00000000
00000000
00000000
00000000
00000000
00000000
00000000
00000000
00000000
00000000
00000000
00000000
00000000
00000000
00000000
00000000
00000000
00000000
00000000
00000000
00000000
00000000
00000000
00000000
00000000
00000000
00000000
00000000
00000000
00000000
00000000
00000000
00000000
00000000
00000000
00000000
00000000
00000000
00000000
00000000
00000000
00000000
00000000
00000000
ENDCHAR
STARTCHAR char115
ENCODING 115
SWIDTH 972 0
DWIDTH 36 0
BBX 36 100 0 -50
BITMAP
0000000000
0000000000
0000000000
0000000000
0000000000
0000000000
0000000000
0000000000
0000000000
0000000000
0000000000
0000000000
0000000000
0000000000
0000000000
0000000000
0000000000
0000000000
0000000000
0000000000
0000000000
0000000000
0000000000
0000000000
0000000000
0000000000
0000000000
0000000000
0000000000
0000000000
000001C000
000007F000
00000FFC00
00001FFE00
00007FFF00
0000FFFF00
0101FCFF80
0301F01F80
0303C00F00
0787800F00
0787000700
0FC6000600
3FFC000E00
FFFC001F00
FFFF007FF0
FDFFFFFFF0
F8FFFFFFF0
F87FFFFFF0
E03FFFC7F0
000FFF01E0
0000000000
0000000000
0000000000
0000000000
0000000000
0000000000
0000000000
0000000000
0000000000
0000000000
0000000000
0000000000
0000000000
0000000000
0000000000
0000000000
0000000000
0000000000
0000000000
0000000000
0000000000
0000000000
0000000000
0000000000
0000000000
0000000000
0000000000
0000000000
0000000000
0000000000
0000000000
0000000000
0000000000
0000000000
0000000000
0000000000
0000000000
0000000000
0000000000
0000000000
0000000000
0000000000
0000000000
0000000000
0000000000
0000000000
0000000000
0000000000
0000000000
0000000000
ENDCHAR
STARTCHAR char116
ENCODING 116
SWIDTH 864 0
DWIDTH 32 0
BBX 32 100 0 -50
BITMAP
00000000
00000000
00000000
00000000
00000000
00000000
00000000
00000000
00000000
00000000
00000000
00000000
00000000
00000000
00000000
00000000
00000000
00000000
00000000
00000000
00000000
00000000
00000000
00000000
00000000
00000000
00000000
00000000
00000000
00000000
00000000
00000000
000003C0
00000FF0
00001FF8
00003FFC
0000FFFE
0201FFFF
0603E07F
0603C03F
0707001E
0F0E000E
0F88000E
3FF8001C
FFF8003C
FFFC00F8
FFFFFFF0
F3FFFFF0
F1FFFFE0
C0FFFF80
003FFF00
0007F800
00000000
00000000
00000000
00000000
00000000
00000000
00000000
00000000
00000000
00000000
00000000
00000000
00000000
00000000
00000000
00000000
00000000
00000000
00000000
00000000
00000000
00000000
00000000
00000000
00000000
00000000
00000000
00000000
00000000
00000000
00000000
00000000
00000000
00000000
00000000
00000000
00000000
00000000
00000000
00000000
00000000
00000000
00000000
00000000
00000000
00000000
00000000
00000000
ENDCHAR
STARTCHAR char117
ENCODING 117
SWIDTH 1269 0
DWIDTH 47 0
BBX 45 100 2 -50
BITMAP
000000000000
000000000000
000000000000
000000000000
000000000000
000000000000
000000000000
000000000000
000000030000
000000078000
0000000F8000
0000000FC000
0000000FC000
000000078000
000000030000
000000000000
0000001CE000
0000003FF000
0000007FF800
0000003FF800
0000003FF000
0000001CE000
000000000000
000000000000
000000000000
000000000000
000000000000
000000000070
000000000070
0000000000F0
0000000000F0
0000000000F8
000000000078
000000000078
000000002078
000003006038
000003807038
000003807030
000003C0F830
000007E1FC70
400003FFFFE0
400003FFFFE0
C00001FFFFE0
C00001FF9FC0
C00001FF0F80
C00000FC0700
C00000C00000
C00000C00000
C00000C00000
E00000C00000
E00001C00000
F00001800000
F00003800000
F80007800000
FE000F000000
7F807E000000
7FFFFE000000
3FFFFC000000
1FFFF8000000
1FFFF0000000
07FFC0000000
01FE00000000
000000000000
000000000000
000000000000
000000000000
000000000000
000000000000
000000000000
000000000000
000000000000
000000000000
000000000000
000000000000
000000000000
000000000000
000000000000
000000000000
000000000000
000000000000
000000000000
000000000000
000000000000
000000000000
000000000000
000000000000
000000000000
000000000000
000000000000
000000000000
000000000000
000000000000
000000000000
000000000000
000000000000
000000000000
000000000000
000000000000
000000000000
000000000000
ENDCHAR
STARTCHAR char118
ENCODING 118
SWIDTH 1269 0
DWIDTH 47 0
BBX 46 100 1 -50
BITMAP
000000000000
000000000000
000000000000
000000000000
000000000000
000000000000
000000000000
000000000000
000000000000
000000000000
000000000000
000000000000
000000000000
000000000000
000000000000
000000000000
000000000000
000000000000
000000000000
000000000000
000000000000
000000000000
000000000000
000000000000
000000000000
000000000000
000000000000
000000000000
000000000000
0000000007E0
000000000FF8
000000003FF8
000000007FFC
00000000F0FC
00000061C03C
000000F3801C
000000FF001C
000000FF0018
0000007F8038
0000007FF9F0
0000007FFFE0
0000003FFFE0
0000003FFF80
0000001CFE00
0000001C0000
000000180000
000000180000
8000001C0000
8000000C0000
800000080000
800000080000
800000180000
800000180000
800000180000
C00000180000
C00000300000
E00000300000
E00000700000
F00000E00000
780001E00000
7E0007C00000
7FC03F800000
3FFFFF000000
1FFFFE000000
1FFFFC000000
0FFFF8000000
03FFE0000000
007F00000000
000000000000
000000000000
000000000000
000000000000
000000000000
000000000000
000000000000
000000000000
000000000000
000000000000
000000000000
000000000000
000000000000
000000000000
000000000000
000000000000
000000000000
000000000000
000000000000
000000000000
000000000000
000000000000
000000000000
000000000000
000000000000
000000000000
000000000000
000000000000
000000000000
000000000000
000000000000
000000000000
ENDCHAR
STARTCHAR char119
ENCODING 119
SWIDTH 1323 0
DWIDTH 49 0
BBX 49 100 0 -50
BITMAP
00000000000000
00000000000000
00000000000000
00000000000000
00000000000000
00000000000000
00000000000000
00000000000000
00000000000000
00000000000000
00000000000000
00000000000000
00000000000000
00000000000000
00000000000000
00000000000000
00000000000000
00000000000000
00000000000000
00000000000000
00000000000000
00000000000000
00000000000000
00000000000000
00000000000000
00000000000000
00000000000000
00000000000000
00000000000000
00000000000000
00000000000000
00000000000000
00000000000000
00000000000000
0000000003E000
0000000007F800
000000000FFC00
000000003FFE00
000000007DFE00
00000030F03E00
00000079E01E00
000000FF801E00
000000FF800E00
0000007F801F00
0000007FE07F80
0000003FFFFF80
0000003FFFFF80
0000001FFFEF80
0000001FFF8780
0000001C0C0180
0000000C000000
4000000E000000
4000000E000000
4000000E000000
4000000C000000
4000000C000000
C000000C000000
C000000C000000
C000000C000000
E0000008000000
E0000018000000
70000038000000
70000038000000
78000070000000
7C0000F0000000
7F0003E0000000
3FE01FC0000000
3FFFFF80000000
1FFFFF00000000
0FFFFE00000000
07FFFC00000000
01FFF000000000
003FC000000000
00000000000000
00000000000000
00000000000000
00000000000000
00000000000000
00000000000000
00000000000000
00000000000000
00000000000000
00000000000000
00000000000000
00000000000000
00000000000000
00000000000000
00000000000000
00000000000000
00000000000000
00000000000000
00000000000000
00000000000000
00000000000000
00000000000000
00000000000000
00000000000000
00000000000000
00000000000000
00000000000000
ENDCHAR
STARTCHAR char120
ENCODING 120
SWIDTH 918 0
DWIDTH 34 0
BBX 33 100 1 -50
BITMAP
0000000000
0030000000
0030000000
0078000000
0078000000
007C000000
007C000000
007C000000
007E000000
007E000000
007E000000
0038000000
0038000000
0038000000
0038000000
0038000000
0038000000
0038000000
0038000000
0018030000
0018038000
001C07C000
001807C000
001C078000
0018030000
001C000000
001C000000
000C000000
000C000000
000C000000
000C000000
000C000000
000C01F800
000C03FC00
000807FE00
00080FFF00
00081FFF80
00083E7F80
0008700F80
0008E00F80
000F800700
000F000700
000E000200
001C000600
0018000C00
0010001C00
0030007C00
80FC0FF800
FFFFFFF800
FFFFFFF000
7FFFFFE000
3FFFFF8000
1FFFFC0000
0000000000
0000000000
0000000000
0000000000
0000000000
0000000000
0000000000
0000000000
0000000000
0000000000
0000000000
0000000000
0000000000
0000000000
0000000000
0000000000
0000000000
0000000000
0000000000
0000000000
0000000000
0000000000
0000000000
0000000000
0000000000
0000000000
0000000000
0000000000
0000000000
0000000000
0000000000
0000000000
0000000000
0000000000
0000000000
0000000000
0000000000
0000000000
0000000000
0000000000
0000000000
0000000000
0000000000
0000000000
0000000000
0000000000
0000000000
ENDCHAR
STARTCHAR char121
ENCODING 121
SWIDTH 1026 0
DWIDTH 38 0
BBX 37 100 1 -50
BITMAP
003C000000
003C000000
003E000000
003E000000
003E000000
003F000000
003F000000
003F000000
003C000000
001C000000
001C000000
001C000000
001C000000
001C000000
001C000000
001C000000
001C018000
000C01C000
000C03C000
000C07E000
000C03E000
000E01C000
000E018000
000E000000
000E000000
000E000000
0006000000
0006000000
0006000000
0006007800
000401FE00
000403FF00
000407FF80
00040FFFC0
00041F7FC0
0004380FC0
00047007C0
0004E003C0
0007800380
0007000180
0006000300
000E000700
000C000F00
0018003F00
707C01FFC0
FFFFFFFFF8
7FFFFFFFF8
3FFFFFFFF8
1FFFFFCFF8
0FFFFF03F8
01FFC00000
0000000000
0000000000
0000000000
0000000000
0000000000
0000000000
0000000000
0000000000
0000000000
0000000000
0000000000
0000000000
0000000000
0000000000
0000000000
0000000000
0000000000
0000000000
0000000000
0000000000
0000000000
0000000000
0000000000
0000000000
0000000000
0000000000
0000000000
0000000000
0000000000
0000000000
0000000000
0000000000
0000000000
0000000000
0000000000
0000000000
0000000000
0000000000
0000000000
0000000000
0000000000
0000000000
0000000000
0000000000
0000000000
0000000000
0000000000
0000000000
0000000000
ENDCHAR
STARTCHAR char122
ENCODING 122
SWIDTH 837 0
DWIDTH 31 0
BBX 31 100 0 -50
BITMAP
1E000000
1F000000
1F000000
1F800000
1F800000
1F800000
0F800000
0E000000
0E000000
0E000000
0E000000
0E000000
06000000
0E000000
06000000
06000000
0600C000
0601E000
0601F000
0701F000
0700E000
0600C000
06000000
06000000
06000000
06000000
06000000
06000000
06000000
06007E00
0201FF00
0203FF80
0207FFC0
020E3FE0
023C07E0
027003E0
00E001E0
01C001C0
030000C0
02000080
06000180
0C000300
1C000700
7FFFFFE0
FFFFFFFC
FFFFFFFE
FFFFFFFE
FFFFE7FE
FFFF80FE
07FC000E
00000000
00000000
00000000
00000000
00000000
00000000
00000000
00000000
00000000
00000000
00000000
00000000
00000000
00000000
00000000
00000000
00000000
00000000
00000000
00000000
00000000
00000000
00000000
00000000
00000000
00000000
00000000
00000000
00000000
00000000
00000000
00000000
00000000
00000000
00000000
00000000
00000000
00000000
00000000
00000000
00000000
00000000
00000000
00000000
00000000
00000000
00000000
00000000
00000000
00000000
ENDCHAR
STARTCHAR char123
ENCODING 123
SWIDTH 756 0
DWIDTH 28 0
BBX 28 100 0 -50
BITMAP
1E000000
1F000000
1F000000
1F800000
1F800000
1F800000
1FC00000
1F800000
0E000000
0E000000
0E000000
0F000000
0F000000
0F000000
0F000000
0F000000
0F000000
0701C000
0703E000
0703F000
0703F000
0701E000
0701C000
07000000
07000000
07000000
07000000
07000000
03000000
07007C00
0700FF00
0301FFC0
0303FFC0
030FFFE0
031FFFE0
023C07F0
067803E0
07F001E0
07E001E0
078000C0
070001C0
0E000180
0E000380
3E001F00
7FFFFF00
FFFFFE00
FFFFFC00
FFFFF800
FFFFF000
FFFFC000
00000000
00000000
00000000
00000000
00000000
00000000
00000000
00000000
00000000
00000000
00000000
00000000
00000000
00000000
00000000
00000000
00000000
00000000
00000000
00000000
00000000
00000000
00000000
00000000
00000000
00000000
00000000
00000000
00000000
00000000
00000000
00000000
00000000
00000000
00000000
00000000
00000000
00000000
00000000
00000000
00000000
00000000
00000000
00000000
00000000
00000000
00000000
00000000
00000000
00000000
ENDCHAR
STARTCHAR char124
ENCODING 124
SWIDTH 324 0
DWIDTH 12 0
BBX 12 100 0 -50
BITMAP
0000
0000
0000
0000
0000
0000
0000
0000
0000
0000
0000
0000
0000
0E00
0F00
1F00
1F80
0F00
0E00
0400
0000
0000
0000
0000
0000
0780
0FC0
0FC0
1FC0
1FE0
33E0
31E0
61E0
60E0
70F0
7FF0
7FF0
7FF0
7F70
1E70
0070
0060
0060
00E0
1FC0
FFC0
FF80
FF00
FE00
FC00
0000
0000
0000
0000
0000
0000
0000
0000
0000
0000
0000
0000
0000
0000
0000
0000
0000
0000
0000
0000
0000
0000
0000
0000
0000
0000
0000
0000
0000
0000
0000
0000
0000
0000
0000
0000
0000
0000
0000
0000
0000
0000
0000
0000
0000
0000
0000
0000
0000
0000
ENDCHAR
STARTCHAR char125
ENCODING 125
SWIDTH 945 0
DWIDTH 35 0
BBX 31 100 4 -50
BITMAP
00000000
00000000
00000000
00000000
00000000
00000000
00000000
00000000
00000000
00000000
000C0000
001E0000
001F0000
001F0000
001E0000
000C0000
00000000
00000000
00000000
00000000
00000000
00000000
00000000
00000000
003E0000
00FF0000
00FF8000
01FF8000
03E18000
03000000
06000000
06000000
0E000000
0E000000
0E000000
0F000000
1F0000C0
0F800780
0FE03F80
0FFFFF80
07FFFF00
03FFFE00
00FFF000
007F0000
00FC0000
01F00000
01C00000
03800000
07000000
0E000000
0C000000
18000000
10000000
30000000
60000000
60000000
40000000
C0000000
C0000000
C0000000
C0000000
C0000000
C0000000
C0000000
E0000000
E0000000
E0000000
E0000000
F0000000
78000000
78000000
7C000000
3E000000
3F800004
1FE0001E
1FFE03F8
0FFFFFF0
07FFFFC0
03FFFF00
01FFFE00
003FF800
00000000
00000000
00000000
00000000
00000000
00000000
00000000
00000000
00000000
00000000
00000000
00000000
00000000
00000000
00000000
00000000
00000000
00000000
00000000
ENDCHAR
STARTCHAR char126
ENCODING 126
SWIDTH 729 0
DWIDTH 27 0
BBX 26 100 1 -50
BITMAP
00000000
00000000
00000000
00000000
00000000
00000000
00000000
00000000
00000000
00000000
00000000
00000000
00000000
00000000
00000000
00000000
00080000
001C0000
003E0000
003F0000
003E0000
003E0000
001C0000
00000000
00000000
00000000
00000000
00000000
00000000
00000000
00000000
00000000
001FE000
00FFF000
03FFF800
07FFF800
07FFF800
07FFF000
01FFE000
00FFE000
007FC000
00FF8000
01FFC000
03FFF000
07C7FFC0
0F83FFC0
0E01FFC0
1C007FC0
38003FC0
38000FC0
30000000
60000000
60000000
60000000
C0000000
C0000000
C0000000
C0000000
C0000000
C0000000
C0000000
C0000000
C0000000
C0000000
C0000000
E0000000
E0000000
F0000000
78000000
7C000000
7C000000
3E000000
3F800000
1FE00000
0FFC0000
0FFFFFC0
03FFFFC0
01FFFF80
00FFFE00
001FF800
0001E000
00000000
00000000
00000000
00000000
00000000
00000000
00000000
00000000
00000000
00000000
00000000
00000000
00000000
00000000
00000000
00000000
00000000
00000000
00000000
ENDCHAR
STARTCHAR char127
ENCODING 127
SWIDTH 567 0
DWIDTH 21 0
BBX 21 100 0 -50
BITMAP
000000
000000
000000
000000
000000
000000
000000
000000
000000
000000
000000
000000
000000
000000
000000
000000
000000
000000
006000
00F000
01F800
01F800
00F800
00F000
006000
000000
000000
000000
000000
000000
000000
000000
000000
00FE00
07FF80
0FFFC0
1FFFC0
3FFFE0
1FFFE0
0FFFC0
07FF80
01FE00
01FC00
01FC00
03FE00
1FFF80
FFFFF8
FFDFF8
FF8FF8
FF07F8
FC01F8
000030
000000
000000
000000
000000
000000
000000
000000
000000
000000
000000
000000
000000
000000
000000
000000
000000
000000
000000
000000
000000
000000
000000
000000
000000
000000
000000
000000
000000
000000
000000
000000
000000
000000
000000
000000
000000
000000
000000
000000
000000
000000
000000
000000
000000
000000
000000
000000
000000
ENDCHAR
ENDFONT
